<svg width="57" height="57" viewBox="0 0 57 57" fill="none" xmlns="http://www.w3.org/2000/svg">
<g clip-path="url(#clip0_1_617)">
<mask id="mask0_1_617" style="mask-type:luminance" maskUnits="userSpaceOnUse" x="1" y="2" width="54" height="53">
<path d="M54.1854 2.72388H1.66669V54.9334H54.1854V2.72388Z" fill="white"/>
</mask>
<g mask="url(#mask0_1_617)">
<path d="M18.3745 48.574C18.657 49.507 18.6566 50.5028 18.3731 51.4356C18.0897 52.3683 17.5361 53.1961 16.7822 53.8142C16.0284 54.4323 15.1082 54.813 14.138 54.9081C13.1678 55.0032 12.1912 54.8086 11.3316 54.3487C10.472 53.8888 9.76813 53.1844 9.30891 52.3245C8.84968 51.4646 8.65574 50.4878 8.75162 49.5177C8.8475 48.5475 9.22889 47.6276 9.84756 46.8743C10.4662 46.1209 11.2944 45.5679 12.2274 45.2852C12.8468 45.0974 13.4971 45.0335 14.1412 45.0971C14.7854 45.1607 15.4106 45.3506 15.9814 45.6559C16.5521 45.9612 17.0571 46.3759 17.4675 46.8764C17.8779 47.3769 18.1858 47.9533 18.3734 48.5728" fill="#7F6BF6"/>
<path d="M46.8505 50.0053C46.8505 50.9802 46.5614 51.9332 46.0198 52.7438C45.4782 53.5544 44.7084 54.1862 43.8077 54.5593C42.907 54.9324 41.9159 55.03 40.9597 54.8398C40.0036 54.6496 39.1253 54.1801 38.4359 53.4908C37.7466 52.8014 37.2771 51.9231 37.0869 50.967C36.8967 50.0108 36.9943 49.0197 37.3674 48.119C37.7405 47.2183 38.3723 46.4485 39.1829 45.9069C39.9935 45.3653 40.9465 45.0762 41.9214 45.0762C43.2287 45.0762 44.4824 45.5955 45.4068 46.5199C46.3312 47.4443 46.8505 48.698 46.8505 50.0053Z" fill="#7F6BF6"/>
<path d="M53.4935 33.6593C52.0441 31.113 50.3923 28.6874 48.5539 26.4061C47.6996 25.3431 46.6212 24.4818 45.3956 23.8837C44.1701 23.2855 42.8276 22.9653 41.464 22.9458C39.8307 22.9201 38.2079 22.8956 36.9887 22.8956H36.9759C36.7692 21.8512 36.2925 20.8792 35.5932 20.0764C34.894 19.2736 33.9966 18.668 32.9905 18.3199C32.5186 18.1577 32.029 18.0524 31.5322 18.0061C31.0422 17.9688 30.1322 17.9303 29.018 17.8894C28.1422 19.5448 26.831 20.9296 25.226 21.8947C23.621 22.8597 21.7831 23.3684 19.9103 23.3657C18.0375 23.3631 16.201 22.8493 14.5987 21.8797C12.9964 20.9101 11.6892 19.5216 10.818 17.8638C9.41802 17.9011 8.25135 17.9396 7.60035 18.0026H7.46152C6.03633 18.1296 4.70123 18.7539 3.69001 19.7662C2.67878 20.7785 2.05588 22.1143 1.93035 23.5396C1.78335 25.3129 1.66669 30.3284 1.66669 33.6464C1.66669 36.9644 1.78335 41.9811 1.93035 43.7533C2.04 44.9593 2.5062 46.1055 3.26955 47.0456C4.0329 47.9858 5.05885 48.6774 6.21669 49.0324C6.45834 47.1813 7.38124 45.4866 8.80521 44.2793C10.2292 43.0721 12.052 42.4388 13.9177 42.5032C15.7835 42.5677 17.5582 43.3251 18.8955 44.6278C20.2328 45.9304 21.0366 47.6847 21.15 49.5481C23.3749 49.5353 26.2659 49.4979 28.4907 49.4221C30.2629 49.4723 32.4877 49.5224 34.4244 49.5481C34.5358 47.6751 35.3448 45.9118 36.6918 44.6056C38.0389 43.2995 39.8264 42.5453 41.7019 42.4918C43.5775 42.4382 45.4051 43.0891 46.8245 44.3162C48.244 45.5432 49.1523 47.2575 49.3705 49.1211C50.5894 48.8043 51.6807 48.1187 52.4952 47.1581C53.3096 46.1975 53.8074 45.0087 53.9205 43.7544C54.0594 42.2214 54.1539 39.2546 54.1842 36.3251C54.1892 35.3918 53.9507 34.4734 53.4924 33.6604M49.206 35.0301C48.9941 35.1566 48.7528 35.2258 48.506 35.2308H37.341V33.6464C37.341 31.3586 37.2909 28.2798 37.2022 25.9908C38.3689 25.9908 39.8925 26.0164 41.4127 26.0409C42.3246 26.052 43.2226 26.2652 44.0421 26.6653C44.8616 27.0653 45.5821 27.6422 46.1517 28.3544C47.3982 29.9026 48.5524 31.5228 49.6085 33.2066C49.7932 33.5026 49.8544 33.8592 49.7792 34.1999C49.7039 34.5406 49.4982 34.8394 49.206 35.0301Z" fill="#ABFFC7"/>
<path d="M29.0204 17.8963C28.1445 19.5516 26.8334 20.9365 25.2284 21.9016C23.6234 22.8666 21.7854 23.3752 19.9126 23.3726C18.0398 23.3699 16.2033 22.8561 14.601 21.8866C12.9988 20.917 11.6916 19.5284 10.8204 17.8706C13.6204 17.7948 17.3315 17.7446 19.5062 17.7446C21.8944 17.7446 26.1562 17.8076 29.0215 17.8951" fill="#5B3DEB"/>
<path d="M29.0588 17.8905C26.1923 17.803 21.9317 17.74 19.5435 17.74C17.3688 17.74 13.6612 17.7902 10.8577 17.866C10.404 16.9932 10.0701 16.0631 9.86483 15.101C9.59297 13.7392 9.59758 12.3367 9.87839 10.9766C10.1592 9.61664 10.7105 8.32694 11.4995 7.18416C12.2884 6.04137 13.2991 5.06881 14.4713 4.32425C15.6435 3.57968 16.9534 3.0783 18.3232 2.84988C18.6008 2.81138 18.8773 2.76121 19.1573 2.72388H20.7907C21.4697 2.84988 22.1603 2.93738 22.8148 3.12638C24.7889 3.69214 26.5493 4.83417 27.8705 6.40627C29.1918 7.97838 30.0138 9.90902 30.2313 11.951C30.462 14.0071 30.0547 16.0843 29.0647 17.901" fill="#7F6BF6"/>
<path d="M16.817 28.9505V25.0352C18.8611 25.5519 21.0017 25.5519 23.0458 25.0352V28.9447H26.6998L19.9332 37.6025L13.1758 28.9505H16.817Z" fill="#5B3DEB"/>
<path d="M20.0335 12.1622H17.1729C17.1338 12.1628 17.0947 12.1597 17.0562 12.1529C17.0137 12.1461 16.9749 12.1246 16.9466 12.0922C16.9182 12.0598 16.9021 12.0186 16.901 11.9755C16.901 11.7224 16.901 11.4704 16.901 11.2172C16.9012 11.1703 16.9193 11.1252 16.9516 11.0912C16.9839 11.0571 17.028 11.0367 17.0749 11.034C17.1135 11.0287 17.1525 11.0263 17.1915 11.027H19.939C19.8493 10.8451 19.7113 10.6913 19.54 10.5825C19.3247 10.4423 19.0808 10.3518 18.826 10.3177C18.5678 10.2839 18.3081 10.2632 18.0479 10.2559C17.755 10.2442 17.4645 10.2559 17.1694 10.2559C16.9722 10.2559 16.894 10.1754 16.8929 9.97703V9.1732C16.8929 8.97487 16.9687 8.90137 17.1647 8.90137H22.7647C22.9607 8.90137 23.04 8.9772 23.0389 9.17203C23.0389 9.39837 23.0389 9.6247 23.0295 9.85103C23.0292 9.89811 23.0107 9.94324 22.9779 9.97696C22.945 10.0107 22.9004 10.0304 22.8534 10.0319C22.8197 10.0367 22.7858 10.0391 22.7519 10.0389H21.2224C21.2504 10.0809 21.2667 10.1089 21.2854 10.1369C21.4496 10.373 21.5661 10.6389 21.6284 10.9197C21.6482 11.0049 21.6832 11.0294 21.7695 11.0282C22.0997 11.0282 22.4299 11.0282 22.7589 11.0282C22.7928 11.0276 22.8267 11.0296 22.8604 11.034C22.91 11.0362 22.9568 11.0576 22.9908 11.0938C23.0248 11.13 23.0433 11.178 23.0424 11.2277C23.0424 11.461 23.0482 11.7072 23.0424 11.9464C23.0447 11.9768 23.0401 12.0074 23.0289 12.0358C23.0177 12.0642 23.0002 12.0896 22.9778 12.1103C22.9553 12.131 22.9284 12.1463 22.8992 12.1551C22.87 12.1638 22.8391 12.1659 22.809 12.161C22.4719 12.161 22.1335 12.161 21.7975 12.161C21.6704 12.161 21.6692 12.161 21.6482 12.2777C21.5606 12.769 21.3287 13.2231 20.982 13.582C20.6602 13.9177 20.2589 14.1669 19.8154 14.3065C19.5214 14.401 19.2157 14.464 18.9135 14.5399C18.9194 14.5457 18.9357 14.5679 18.9555 14.5877C19.9682 15.6855 20.9214 16.8324 21.8722 17.9862C21.9352 18.062 21.997 18.1367 22.0565 18.2195C22.08 18.2484 22.094 18.2838 22.0967 18.321C22.0994 18.3581 22.0907 18.3952 22.0717 18.4272C22.0571 18.4643 22.0317 18.4962 21.9989 18.5189C21.9661 18.5415 21.9272 18.5539 21.8874 18.5544C21.4308 18.5544 20.9746 18.5544 20.5189 18.5544C20.4809 18.5508 20.4444 18.5384 20.4122 18.5182C20.38 18.4979 20.353 18.4703 20.3334 18.4377C20.058 18.111 19.7874 17.7797 19.5074 17.4589C18.7296 16.573 17.9518 15.6898 17.174 14.8094C17.1075 14.7335 17.0399 14.6612 16.9699 14.5877C16.942 14.5598 16.9201 14.5264 16.9057 14.4897C16.8912 14.4529 16.8845 14.4136 16.8859 14.3742C16.8859 14.1082 16.8859 13.841 16.8859 13.575C16.8823 13.5403 16.8866 13.5052 16.8984 13.4724C16.9102 13.4395 16.9293 13.4097 16.9541 13.3852C16.979 13.3607 17.009 13.3421 17.042 13.3307C17.075 13.3193 17.1102 13.3155 17.1449 13.3195C17.44 13.3195 17.7352 13.3254 18.0315 13.3195C18.4707 13.3234 18.9051 13.2277 19.302 13.0395C19.4684 12.9617 19.617 12.8505 19.7387 12.7128C19.8603 12.5751 19.9523 12.4139 20.009 12.2392C20.0149 12.2194 20.0184 12.1995 20.0254 12.1704" fill="white"/>
</g>
</g>
<defs>
<clipPath id="clip0_1_617">
<rect width="56" height="56" fill="white" transform="translate(0.5 0.390625)"/>
</clipPath>
</defs>
</svg>
