<svg width="56" height="57" viewBox="0 0 56 57" fill="none" xmlns="http://www.w3.org/2000/svg">
<g clip-path="url(#clip0_1_637)">
<mask id="mask0_1_637" style="mask-type:luminance" maskUnits="userSpaceOnUse" x="3" y="0" width="50" height="57">
<path d="M52.6388 0.390625H3.5V56.3906H52.6388V0.390625Z" fill="white"/>
</mask>
<g mask="url(#mask0_1_637)">
<path d="M46.7868 19.8635H33.166V6.5437C33.9547 6.767 34.7286 7.03976 35.483 7.36037C35.3853 7.42012 35.3046 7.50396 35.2486 7.60386C35.1927 7.70376 35.1633 7.81636 35.1633 7.93087V17.1849C35.1636 17.2735 35.1814 17.3611 35.2157 17.4428C35.2499 17.5246 35.3 17.5987 35.363 17.661C35.4259 17.7233 35.5006 17.7726 35.5826 17.806C35.6647 17.8394 35.7526 17.8563 35.8412 17.8557H45.0952C45.263 17.8559 45.4246 17.7926 45.5478 17.6786C45.6709 17.5646 45.7463 17.4082 45.759 17.2409C46.1621 18.089 46.5055 18.9642 46.7868 19.86" fill="#98DFFF"/>
<path d="M47.6642 25.734C47.6642 31.6677 45.5338 36.4919 43.8142 40.3699C42.7175 42.863 41.7643 45.012 41.7643 46.6547V56.3905H20.9802V51.8674H16.2295C13.6173 51.8674 10.661 51.8674 9.93999 49.1047C9.44392 46.5248 9.13434 43.9125 9.01365 41.288H6.53332C5.9477 41.3296 5.3635 41.1898 4.86006 40.8878C4.35662 40.5858 3.95834 40.1361 3.71932 39.5999C3.5057 39.0839 3.4459 38.5172 3.54713 37.968C3.64835 37.4188 3.90628 36.9106 4.28982 36.5047C5.70499 35.0884 8.66832 31.4285 8.74999 30.5325C8.69017 29.8559 8.54513 29.1895 8.31832 28.5492C8.00453 27.6418 7.8188 26.6951 7.76649 25.7364C7.77143 20.4468 9.87489 15.3753 13.6152 11.6351C17.3554 7.89478 22.4269 5.79132 27.7165 5.78638C27.9113 5.78638 28.112 5.78638 28.2998 5.79338C28.2969 5.82637 28.2969 5.85955 28.2998 5.89254C28.2995 5.99212 28.3189 6.09077 28.3568 6.18284C28.3947 6.27491 28.4505 6.35857 28.5208 6.42904C28.5912 6.4995 28.6748 6.55537 28.7668 6.59344C28.8588 6.63151 28.9574 6.65103 29.057 6.65088H30.8992V7.80354H29.05C28.8489 7.80354 28.656 7.88344 28.5138 8.02565C28.3715 8.16787 28.2917 8.36075 28.2917 8.56188C28.2917 8.763 28.3715 8.95588 28.5138 9.0981C28.656 9.24031 28.8489 9.32021 29.05 9.32021H30.8922V10.4729H29.05C28.8489 10.4729 28.656 10.5528 28.5138 10.695C28.3715 10.8372 28.2917 11.0301 28.2917 11.2312C28.2917 11.4323 28.3715 11.6252 28.5138 11.7674C28.656 11.9096 28.8489 11.9895 29.05 11.9895H30.8922V13.1422H29.05C28.9509 13.1422 28.8527 13.1617 28.7611 13.1997C28.6695 13.2376 28.5863 13.2932 28.5162 13.3633C28.4461 13.4334 28.3905 13.5166 28.3526 13.6082C28.3147 13.6998 28.2952 13.7979 28.2952 13.897C28.2952 13.9962 28.3147 14.0943 28.3526 14.1859C28.3905 14.2775 28.4461 14.3607 28.5162 14.4308C28.5863 14.5009 28.6695 14.5565 28.7611 14.5944C28.8527 14.6324 28.9509 14.6519 29.05 14.6519H30.8922V15.8045H29.05C28.8489 15.8045 28.656 15.8844 28.5138 16.0267C28.3715 16.1689 28.2917 16.3618 28.2917 16.5629C28.2917 16.764 28.3715 16.9569 28.5138 17.0991C28.656 17.2413 28.8489 17.3212 29.05 17.3212H30.8922V18.4669H29.05C28.8489 18.4669 28.656 18.5468 28.5138 18.689C28.3715 18.8312 28.2917 19.0241 28.2917 19.2252C28.2917 19.4263 28.3715 19.6192 28.5138 19.7614C28.656 19.9037 28.8489 19.9835 29.05 19.9835H30.8922C30.9108 20.5459 31.1426 21.0801 31.5406 21.4779C31.9386 21.8757 32.4729 22.1072 33.0353 22.1255V23.9735C33.0353 24.1747 33.1152 24.3676 33.2574 24.5098C33.3996 24.652 33.5925 24.7319 33.7937 24.7319C33.9948 24.7319 34.1877 24.652 34.3299 24.5098C34.4721 24.3676 34.552 24.1747 34.552 23.9735V22.1314H35.7047V23.9735C35.7047 24.1737 35.7842 24.3657 35.9257 24.5073C36.0673 24.6489 36.2593 24.7284 36.4595 24.7284C36.6597 24.7284 36.8517 24.6489 36.9932 24.5073C37.1348 24.3657 37.2143 24.1737 37.2143 23.9735V22.1314H38.367V23.9735C38.367 24.1747 38.4469 24.3676 38.5891 24.5098C38.7313 24.652 38.9242 24.7319 39.1253 24.7319C39.3264 24.7319 39.5193 24.652 39.6615 24.5098C39.8038 24.3676 39.8837 24.1747 39.8837 23.9735V22.1314H41.0363V23.9735C41.0363 24.1747 41.1162 24.3676 41.2584 24.5098C41.4006 24.652 41.5935 24.7319 41.7947 24.7319C41.9958 24.7319 42.1887 24.652 42.3309 24.5098C42.4731 24.3676 42.553 24.1747 42.553 23.9735V22.1314H43.7057V23.9735C43.7057 24.1737 43.7852 24.3657 43.9267 24.5073C44.0683 24.6489 44.2603 24.7284 44.4605 24.7284C44.6607 24.7284 44.8527 24.6489 44.9942 24.5073C45.1358 24.3657 45.2153 24.1737 45.2153 23.9735V22.1314H46.3738V23.9735C46.3732 24.1736 46.4519 24.3658 46.5928 24.508C46.7336 24.6501 46.9251 24.7306 47.1252 24.7319C47.308 24.7328 47.4847 24.6659 47.621 24.544C47.6467 24.9395 47.6583 25.3339 47.6583 25.734" fill="#ABFFC7"/>
<path d="M45.759 17.2384V17.2454C45.7463 17.4127 45.6708 17.5689 45.5477 17.6827C45.4245 17.7966 45.2629 17.8596 45.0952 17.8591H35.8412C35.7526 17.8597 35.6648 17.8428 35.5828 17.8094C35.5008 17.776 35.4263 17.7267 35.3634 17.6643C35.3005 17.602 35.2506 17.5279 35.2164 17.4462C35.1823 17.3645 35.1646 17.2768 35.1645 17.1883V7.93427C35.1643 7.81974 35.1937 7.70709 35.2497 7.60718C35.3056 7.50726 35.3864 7.42344 35.4842 7.36377C40.0041 9.28396 43.6609 12.7983 45.759 17.2384Z" fill="#5A3EEB"/>
<path d="M45.766 7.93548V17.1895C45.7669 17.2061 45.7645 17.2228 45.759 17.2385C43.6618 12.7979 40.0047 9.28368 35.4842 7.36498C35.592 7.30005 35.7153 7.26539 35.8412 7.26465H45.0952C45.2731 7.26465 45.4437 7.33533 45.5695 7.46113C45.6953 7.58694 45.766 7.75757 45.766 7.93548Z" fill="#7F6BF6"/>
<path d="M51.8805 9.31912C52.0816 9.31912 52.2745 9.23923 52.4167 9.09701C52.5589 8.9548 52.6388 8.76191 52.6388 8.56079C52.6388 8.35967 52.5589 8.16678 52.4167 8.02457C52.2745 7.88235 52.0816 7.80246 51.8805 7.80246H50.0383V6.64979H51.8805C52.0816 6.64979 52.2745 6.5699 52.4167 6.42768C52.5589 6.28547 52.6388 6.09258 52.6388 5.89146C52.6388 5.69034 52.5589 5.49745 52.4167 5.35524C52.2745 5.21302 52.0816 5.13312 51.8805 5.13312H50.0325C50.0156 4.56953 49.7845 4.03356 49.3864 3.63432C48.9882 3.23507 48.4529 3.00257 47.8893 2.98412V1.14896C47.8893 1.04983 47.8698 0.951677 47.8319 0.860096C47.7939 0.768515 47.7383 0.685303 47.6682 0.615211C47.5981 0.545118 47.5149 0.489517 47.4233 0.451583C47.3318 0.413649 47.2336 0.394125 47.1345 0.394125C47.0354 0.394125 46.9372 0.413649 46.8456 0.451583C46.754 0.489517 46.6708 0.545118 46.6007 0.615211C46.5306 0.685303 46.475 0.768515 46.4371 0.860096C46.3992 0.951677 46.3796 1.04983 46.3796 1.14896V2.98996H45.22V1.14896C45.22 1.04983 45.2005 0.951677 45.1625 0.860096C45.1246 0.768515 45.069 0.685303 44.9989 0.615211C44.9288 0.545118 44.8456 0.489517 44.754 0.451583C44.6624 0.413649 44.5643 0.394125 44.4651 0.394125C44.366 0.394125 44.2679 0.413649 44.1763 0.451583C44.0847 0.489517 44.0015 0.545118 43.9314 0.615211C43.8613 0.685303 43.8057 0.768515 43.7678 0.860096C43.7298 0.951677 43.7103 1.04983 43.7103 1.14896V2.98996H42.5576V1.14896C42.5576 0.947836 42.4778 0.754951 42.3355 0.612736C42.1933 0.470521 42.0004 0.390625 41.7993 0.390625C41.5982 0.390625 41.4053 0.470521 41.2631 0.612736C41.1209 0.754951 41.041 0.947836 41.041 1.14896V2.98996H39.8883V1.14896C39.8883 0.947836 39.8084 0.754951 39.6662 0.612736C39.524 0.470521 39.3311 0.390625 39.13 0.390625C38.9289 0.390625 38.736 0.470521 38.5938 0.612736C38.4515 0.754951 38.3716 0.947836 38.3716 1.14896V2.98996H37.219V1.14896C37.219 0.948764 37.1395 0.756769 36.9979 0.615211C36.8563 0.473652 36.6643 0.394125 36.4641 0.394125C36.264 0.394125 36.072 0.473652 35.9304 0.615211C35.7888 0.756769 35.7093 0.948764 35.7093 1.14896V2.98996H34.5566V1.14896C34.5566 0.947836 34.4768 0.754951 34.3345 0.612736C34.1923 0.470521 33.9994 0.390625 33.7983 0.390625C33.5972 0.390625 33.4043 0.470521 33.2621 0.612736C33.1199 0.754951 33.04 0.947836 33.04 1.14896V2.98996C32.4766 3.00869 31.9416 3.24133 31.5437 3.64054C31.1458 4.03975 30.9149 4.57556 30.898 5.13896H29.0558C28.8728 5.13856 28.6958 5.20437 28.5575 5.32423C28.4192 5.44409 28.3289 5.60992 28.3033 5.79112C29.9491 5.83876 31.5826 6.09115 33.166 6.54246V5.25912H47.7645V19.8635H46.7868C47.2521 21.3843 47.5341 22.9552 47.6268 24.543C47.7094 24.4727 47.7757 24.3852 47.8211 24.2867C47.8664 24.1882 47.8897 24.0809 47.8893 23.9725V22.1315C48.4515 22.1131 48.9857 21.8818 49.3836 21.4842C49.7816 21.0867 50.0135 20.5528 50.0325 19.9906H51.8805C52.0816 19.9906 52.2745 19.9107 52.4167 19.7685C52.5589 19.6263 52.6388 19.4334 52.6388 19.2323C52.6388 19.0312 52.5589 18.8383 52.4167 18.6961C52.2745 18.5539 52.0816 18.474 51.8805 18.474H50.0383V17.3213H51.8805C52.0816 17.3213 52.2745 17.2414 52.4167 17.0992C52.5589 16.957 52.6388 16.7641 52.6388 16.563C52.6388 16.3618 52.5589 16.169 52.4167 16.0267C52.2745 15.8845 52.0816 15.8046 51.8805 15.8046H50.0383V14.652H51.8805C52.0807 14.652 52.2727 14.5724 52.4142 14.4309C52.5558 14.2893 52.6353 14.0973 52.6353 13.8971C52.6353 13.6969 52.5558 13.5049 52.4142 13.3634C52.2727 13.2218 52.0807 13.1423 51.8805 13.1423H50.0383V11.9873H51.8805C52.0816 11.9873 52.2745 11.9074 52.4167 11.7652C52.5589 11.623 52.6388 11.4301 52.6388 11.229C52.6388 11.0278 52.5589 10.835 52.4167 10.6927C52.2745 10.5505 52.0816 10.4706 51.8805 10.4706H50.0383V9.31912H51.8805Z" fill="#7F6BF6"/>
<path d="M47.6257 24.5429C47.4898 24.6647 47.3135 24.7317 47.131 24.7307C46.9307 24.7298 46.7389 24.6494 46.5979 24.5072C46.4568 24.365 46.3779 24.1727 46.3785 23.9723V22.1302H45.22V23.9723C45.22 24.0715 45.2005 24.1696 45.1625 24.2612C45.1246 24.3528 45.069 24.436 44.9989 24.5061C44.9288 24.5762 44.8456 24.6318 44.754 24.6697C44.6624 24.7077 44.5643 24.7272 44.4652 24.7272C44.366 24.7272 44.2679 24.7077 44.1763 24.6697C44.0847 24.6318 44.0015 24.5762 43.9314 24.5061C43.8613 24.436 43.8057 24.3528 43.7678 24.2612C43.7298 24.1696 43.7103 24.0715 43.7103 23.9723V22.1302H42.5577V23.9723C42.5577 24.1735 42.4778 24.3664 42.3355 24.5086C42.1933 24.6508 42.0004 24.7307 41.7993 24.7307C41.5982 24.7307 41.4053 24.6508 41.2631 24.5086C41.1209 24.3664 41.041 24.1735 41.041 23.9723V22.1302H39.8895V23.9723C39.8895 24.1735 39.8096 24.3664 39.6674 24.5086C39.5252 24.6508 39.3323 24.7307 39.1312 24.7307C38.93 24.7307 38.7371 24.6508 38.5949 24.5086C38.4527 24.3664 38.3728 24.1735 38.3728 23.9723V22.1302H37.2202V23.9723C37.2202 24.1725 37.1406 24.3645 36.9991 24.5061C36.8575 24.6477 36.6655 24.7272 36.4653 24.7272C36.2651 24.7272 36.0731 24.6477 35.9316 24.5061C35.79 24.3645 35.7105 24.1725 35.7105 23.9723V22.1302H34.5578V23.9723C34.5578 24.1735 34.4779 24.3664 34.3357 24.5086C34.1935 24.6508 34.0006 24.7307 33.7995 24.7307C33.5984 24.7307 33.4055 24.6508 33.2633 24.5086C33.121 24.3664 33.0412 24.1735 33.0412 23.9723V22.1302C32.4788 22.1118 31.9444 21.8803 31.5464 21.4825C31.1485 21.0848 30.9166 20.5505 30.898 19.9882H29.0558C28.8547 19.9882 28.6618 19.9083 28.5196 19.7661C28.3774 19.6239 28.2975 19.431 28.2975 19.2298C28.2975 19.0287 28.3774 18.8358 28.5196 18.6936C28.6618 18.5514 28.8547 18.4715 29.0558 18.4715H30.8968V17.3188H29.0558C28.8547 17.3188 28.6618 17.239 28.5196 17.0967C28.3774 16.9545 28.2975 16.7616 28.2975 16.5605C28.2975 16.3594 28.3774 16.1665 28.5196 16.0243C28.6618 15.8821 28.8547 15.8022 29.0558 15.8022H30.8968V14.6495H29.0558C28.8556 14.6495 28.6636 14.57 28.5221 14.4284C28.3805 14.2869 28.301 14.0949 28.301 13.8947C28.301 13.6945 28.3805 13.5025 28.5221 13.3609C28.6636 13.2194 28.8556 13.1398 29.0558 13.1398H30.8968V11.9872H29.0558C28.8547 11.9872 28.6618 11.9073 28.5196 11.7651C28.3774 11.6229 28.2975 11.43 28.2975 11.2288C28.2975 11.0277 28.3774 10.8348 28.5196 10.6926C28.6618 10.5504 28.8547 10.4705 29.0558 10.4705H30.8968V9.31902H29.0558C28.8547 9.31902 28.6618 9.23912 28.5196 9.0969C28.3774 8.95469 28.2975 8.7618 28.2975 8.56068C28.2975 8.35956 28.3774 8.16667 28.5196 8.02446C28.6618 7.88224 28.8547 7.80235 29.0558 7.80235H30.8968V6.64852H29.0558C28.9561 6.64882 28.8574 6.62942 28.7653 6.59142C28.6731 6.55342 28.5894 6.49757 28.5189 6.42709C28.4484 6.35661 28.3926 6.27289 28.3546 6.18075C28.3166 6.0886 28.2972 5.98985 28.2975 5.89018C28.2964 5.85697 28.2987 5.82374 28.3045 5.79102C29.9499 5.83814 31.5831 6.09054 33.166 6.54235V19.8657H46.7868C47.2517 21.387 47.5333 22.9583 47.6257 24.5463" fill="#5A3EEB"/>
</g>
</g>
<defs>
<clipPath id="clip0_1_637">
<rect width="56" height="56" fill="white" transform="translate(0 0.390625)"/>
</clipPath>
</defs>
</svg>
