<svg width="56" height="57" viewBox="0 0 56 57" fill="none" xmlns="http://www.w3.org/2000/svg">
<g clip-path="url(#clip0_1_600)">
<mask id="mask0_1_600" style="mask-type:luminance" maskUnits="userSpaceOnUse" x="3" y="0" width="51" height="57">
<path d="M53.389 0.390625H3.5V56.3906H53.389V0.390625Z" fill="white"/>
</mask>
<g mask="url(#mask0_1_600)">
<path d="M53.3796 52.1753C53.3921 52.6117 53.3921 53.0476 53.3796 53.4832C53.3868 54.1067 53.1911 54.7156 52.822 55.2181C52.4529 55.7206 51.9304 56.0895 51.3333 56.2692C51.2491 56.3007 51.1679 56.3398 51.0906 56.3858L5.82396 56.3742C5.42274 56.2097 5.03567 56.0127 4.66662 55.785C4.32105 55.5437 4.03837 55.223 3.84228 54.8499C3.64619 54.4768 3.54241 54.0621 3.53962 53.6407C3.32626 50.484 3.93667 47.3261 5.31104 44.4763C6.68541 41.6265 8.77657 39.1827 11.3796 37.3843C11.767 37.1055 12.1671 36.8512 12.579 36.6085C12.6007 36.5992 12.6211 36.587 12.6396 36.5723C13.7227 35.9409 14.8673 35.4214 16.0556 35.0218C18.0823 34.2432 20.1796 33.663 22.3183 33.2893C23.0987 33.8653 23.9648 34.3149 24.885 34.6217C25.4676 33.7576 26.3195 33.1104 27.3081 32.7807C27.6955 32.769 28.084 32.7562 28.4748 32.7562C31.6294 32.7503 34.7706 33.1658 37.8151 33.9917C36.7768 34.7766 35.4992 35.1788 34.1985 35.1303C32.4181 35.142 30.6366 35.1187 28.8435 35.1303C28.7546 35.1282 28.6658 35.1321 28.5775 35.142C28.3201 35.1562 28.0682 35.2216 27.8365 35.3344C27.6048 35.4471 27.3979 35.605 27.2279 35.7987C27.0579 35.9924 26.9282 36.2181 26.8465 36.4625C26.7648 36.7069 26.7327 36.9652 26.752 37.2222C26.7713 37.4791 26.8417 37.7297 26.9591 37.9592C27.0764 38.1886 27.2383 38.3924 27.4353 38.5585C27.6324 38.7246 27.8606 38.8497 28.1066 38.9266C28.3526 39.0034 28.6114 39.0304 28.868 39.006C30.7451 39.006 32.6235 39.055 34.5006 38.9943C35.9238 38.9987 37.3293 38.6791 38.6106 38.0598C39.8919 37.4405 41.0155 36.5376 41.8961 35.4197C42.7198 35.7697 43.519 36.1465 44.2831 36.5583L44.2948 36.5467C44.3218 36.5632 44.3461 36.5837 44.3671 36.6073L44.4395 36.6435C45.1301 37.1277 45.857 37.5768 46.4986 38.1217C48.623 39.8009 50.344 41.9349 51.5352 44.3667C52.7264 46.7985 53.3574 49.4664 53.382 52.1742" fill="#ABFFC7"/>
<path d="M44.4523 15.1676C44.088 14.8169 43.8714 14.3403 43.8468 13.8352C43.3317 10.081 41.4627 6.64435 38.5912 4.17159C35.7198 1.69883 32.0439 0.360379 28.2548 0.407965C24.4656 0.455551 20.8245 1.8859 18.0161 4.42998C15.2076 6.97407 13.4255 10.4566 13.0048 14.2226C12.9622 14.4994 12.8303 14.7546 12.6291 14.9494C12.0178 15.5384 11.661 16.3432 11.6351 17.1917C11.611 19.9777 11.611 22.7641 11.6351 25.5509C11.6501 26.2036 11.8666 26.8357 12.2549 27.3606C12.6432 27.8854 13.1842 28.2774 13.804 28.4827C14.4293 28.6992 15.1059 28.7189 15.7428 28.5391C16.3796 28.3593 16.946 27.9886 17.3658 27.4771C17.4626 27.3441 17.5723 27.2227 17.6925 27.0653C18.7279 29.4733 20.3125 31.6056 22.3195 33.2918C23.9681 32.9976 25.6364 32.8276 27.3105 32.7831C27.9388 32.5584 28.608 32.4717 29.2728 32.5287C30.9061 32.5777 32.5558 32.5287 34.1915 32.5404C34.7135 32.5714 35.2349 32.47 35.7072 32.2456C36.1796 32.0213 36.5876 31.6812 36.8935 31.2571C37.4294 30.4995 37.9266 29.7152 38.3833 28.9074C38.6983 28.3241 38.9282 27.7081 39.207 27.0898C39.473 27.3686 39.704 27.6229 39.9221 27.8889C40.0268 27.9828 40.0918 28.1129 40.1042 28.2529C40.1324 29.0179 40.0933 29.7838 39.9875 30.5419C39.718 31.9227 38.9424 33.1531 37.8128 33.9917C39.2036 34.3785 40.5677 34.856 41.8961 35.4209C42.4295 34.7593 42.866 34.0251 43.1923 33.2404C43.8432 31.7852 44.118 30.1897 43.9915 28.6006C43.9734 28.4341 43.9958 28.2657 44.0567 28.1097C44.1177 27.9537 44.2154 27.8147 44.3415 27.7046C44.6501 27.4172 44.8948 27.0681 45.0596 26.68C45.2245 26.2919 45.3057 25.8734 45.2981 25.4517V17.2991C45.3108 16.9044 45.242 16.5114 45.096 16.1445C44.9501 15.7776 44.7302 15.4446 44.45 15.1664M39.6165 15.2154C39.432 15.3977 39.2695 15.6009 39.1323 15.8209C39.0355 15.5876 38.9503 15.4207 38.8663 15.2271C38.2342 13.6169 37.2586 12.1639 36.0076 10.9693C34.7565 9.77463 33.2601 8.86711 31.6225 8.30991C27.3338 6.94141 23.6635 8.19325 20.587 11.3631C19.3763 12.6487 18.4294 14.1593 17.7998 15.8092C17.4965 15.4697 17.2421 15.2037 17.0123 14.8887C16.9228 14.7441 16.8846 14.5736 16.9038 14.4046C17.2746 11.6344 18.6281 9.08962 20.7178 7.23368C22.8074 5.37775 25.4942 4.33417 28.2888 4.29303C31.0834 4.25189 33.7997 5.21593 35.9431 7.00955C38.0865 8.80318 39.5143 11.307 39.9665 14.0651C40.0303 14.2698 40.031 14.489 39.9686 14.6941C39.9062 14.8993 39.7835 15.0809 39.6165 15.2154Z" fill="#7F6BF6"/>
<path d="M27.3105 32.7808C26.3219 33.1105 25.47 33.7577 24.8873 34.6218C23.9672 34.315 23.1011 33.8654 22.3207 33.2894C23.9693 32.9953 25.6365 32.8253 27.3105 32.7808Z" fill="#40B1E3"/>
<path d="M41.8961 35.4208C41.0147 36.5393 39.8901 37.4424 38.6077 38.0616C37.3253 38.6808 35.9188 38.9997 34.4947 38.9943C32.6176 39.055 30.7392 39.006 28.8621 39.006C28.6037 39.0137 28.3464 38.9698 28.1052 38.8766C27.8641 38.7835 27.644 38.6431 27.4579 38.4636C27.2718 38.2842 27.1235 38.0693 27.0217 37.8318C26.9198 37.5942 26.8665 37.3386 26.8649 37.0801C26.8633 36.8216 26.9133 36.5654 27.0122 36.3265C27.111 36.0877 27.2566 35.871 27.4404 35.6892C27.6242 35.5074 27.8425 35.3642 28.0824 35.2681C28.3224 35.1719 28.5791 35.1247 28.8376 35.1291C30.6307 35.1175 32.4111 35.1408 34.1926 35.1291C35.4933 35.1776 36.7709 34.7754 37.8092 33.9905C39.2001 34.3773 40.5641 34.8547 41.8926 35.4196" fill="#5B3DEB"/>
</g>
</g>
<defs>
<clipPath id="clip0_1_600">
<rect width="56" height="56" fill="white" transform="translate(0 0.390625)"/>
</clipPath>
</defs>
</svg>
