<svg width="57" height="56" viewBox="0 0 57 56" fill="none" xmlns="http://www.w3.org/2000/svg">
<g clip-path="url(#clip0_1_794)">
<path d="M22.8709 22.0915C22.503 22.0905 22.1396 22.0096 21.8063 21.8544C21.4729 21.6992 21.1776 21.4734 20.9408 21.1928C20.7041 20.9121 20.5317 20.5835 20.4356 20.2296C20.3395 19.8758 20.322 19.5054 20.3844 19.1441L21.2224 14.2757L17.6718 10.8283C17.3345 10.5007 17.096 10.0856 16.9831 9.62998C16.8702 9.17437 16.8875 8.69639 17.0331 8.25007C17.1786 7.80375 17.4466 7.40687 17.8067 7.1043C18.1668 6.80172 18.6047 6.6055 19.0709 6.53781L23.9784 5.82729L26.1733 1.39781C26.3819 0.976968 26.7045 0.622645 27.1047 0.374895C27.5049 0.127145 27.9667 -0.00415039 28.4379 -0.00415039C28.909 -0.00415039 29.3708 0.127145 29.771 0.374895C30.1712 0.622645 30.4939 0.976968 30.7025 1.39781L32.8973 5.82729L37.8048 6.53781C38.271 6.6055 38.7089 6.80172 39.069 7.1043C39.4291 7.40687 39.6971 7.80375 39.8426 8.25007C39.9882 8.69639 40.0055 9.17437 39.8926 9.62998C39.7798 10.0856 39.5412 10.5007 39.204 10.8283L35.6533 14.2757L36.4913 19.1441C36.5707 19.6067 36.5187 20.0821 36.3412 20.5167C36.1636 20.9514 35.8675 21.3279 35.4864 21.6037C35.1053 21.8795 34.6543 22.0437 34.1845 22.0776C33.7147 22.1115 33.2446 22.0139 32.8276 21.7957L28.4347 19.502L24.046 21.801C23.6838 21.9912 23.2805 22.091 22.8709 22.0915Z" fill="#ABFFC7"/>
<path d="M14.1011 26.6631C13.7224 26.6625 13.3495 26.57 13.0147 26.3936L9.77159 24.6947L6.52844 26.3936C6.14382 26.5975 5.70942 26.6895 5.2748 26.6594C4.84017 26.6292 4.4228 26.478 4.07028 26.223C3.71775 25.9679 3.44427 25.6194 3.281 25.217C3.11773 24.8147 3.07125 24.3747 3.14686 23.9473L3.76612 20.3494L1.14222 17.8031C0.830896 17.5008 0.610687 17.1177 0.506496 16.6973C0.402306 16.2768 0.418289 15.8357 0.552639 15.4238C0.686989 15.0119 0.934346 14.6457 1.26674 14.3665C1.59914 14.0874 2.00331 13.9064 2.43356 13.8441L6.06031 13.3178L7.68241 10.0441C7.87478 9.65565 8.17246 9.32854 8.54176 9.09982C8.91106 8.87109 9.33725 8.74988 9.77212 8.74988C10.207 8.74988 10.6332 8.87109 11.0025 9.09982C11.3718 9.32854 11.6694 9.65565 11.8618 10.0441L13.4839 13.3178L17.1107 13.8441C17.542 13.9046 17.9477 14.0845 18.2814 14.3634C18.6151 14.6424 18.8634 15.0091 18.998 15.4218C19.1326 15.8344 19.1481 16.2765 19.0427 16.6975C18.9373 17.1186 18.7153 17.5016 18.402 17.8031L15.7781 20.3504L16.3974 23.9483C16.4543 24.2814 16.4378 24.6228 16.3488 24.9488C16.2599 25.2747 16.1007 25.5775 15.8823 25.836C15.6639 26.0945 15.3917 26.3025 15.0844 26.4455C14.7772 26.5885 14.4423 26.6631 14.1032 26.6641L14.1011 26.6631Z" fill="#7F6BF6"/>
<path d="M51.4326 26.6631C51.0539 26.6625 50.6811 26.57 50.3463 26.3936L47.1031 24.6947L43.86 26.3936C43.4754 26.5975 43.041 26.6895 42.6063 26.6594C42.1717 26.6292 41.7544 26.478 41.4018 26.223C41.0493 25.9679 40.7758 25.6194 40.6125 25.217C40.4493 24.8147 40.4028 24.3747 40.4784 23.9473L41.0977 20.3494L38.4738 17.8031C38.1624 17.5008 37.9422 17.1177 37.838 16.6973C37.7338 16.2768 37.7498 15.8357 37.8842 15.4238C38.0185 15.0119 38.2659 14.6457 38.5983 14.3665C38.9307 14.0874 39.3349 13.9064 39.7651 13.8441L43.3918 13.3178L45.0139 10.0441C45.205 9.65429 45.5021 9.32575 45.8715 9.09593C46.2409 8.86611 46.6676 8.74426 47.1031 8.74426C47.5387 8.74426 47.9654 8.86611 48.3347 9.09593C48.7041 9.32575 49.0013 9.65429 49.1923 10.0441L50.8144 13.3178L54.4412 13.8441C54.8725 13.9046 55.2782 14.0845 55.6119 14.3634C55.9456 14.6424 56.1939 15.0091 56.3285 15.4218C56.4631 15.8344 56.4786 16.2765 56.3732 16.6975C56.2679 17.1186 56.0458 17.5016 55.7325 17.8031L53.1086 20.3504L53.7279 23.9483C53.7848 24.2814 53.7682 24.6228 53.6793 24.9488C53.5903 25.2747 53.4312 25.5775 53.2128 25.836C52.9944 26.0945 52.7222 26.3025 52.4149 26.4455C52.1077 26.5885 51.7728 26.6631 51.4337 26.6641L51.4326 26.6631Z" fill="#7F6BF6"/>
<path d="M14.5808 44.9695C12.9654 46.4361 10.8584 47.2491 8.67258 47.2491C6.48681 47.2491 4.37979 46.4361 2.76433 44.9695C2.04507 45.4737 1.45817 46.143 1.05317 46.9207C0.648168 47.6984 0.436962 48.5618 0.437379 49.4379V54.36C0.437379 54.7952 0.61095 55.2126 0.919909 55.5204C1.22887 55.8282 1.64791 56.0011 2.08484 56.0011H15.2603C15.6973 56.0011 16.1163 55.8282 16.4253 55.5204C16.7342 55.2126 16.9078 54.7952 16.9078 54.36V49.4379C16.9082 48.5618 16.697 47.6984 16.292 46.9207C15.887 46.143 15.3001 45.4737 14.5808 44.9695Z" fill="#7F6BF6"/>
<path d="M8.67781 43.9695C7.59099 43.9695 6.52857 43.6484 5.62491 43.047C4.72125 42.4455 4.01694 41.5906 3.60103 40.5905C3.18512 39.5903 3.0763 38.4897 3.28833 37.4279C3.50036 36.3661 4.02371 35.3908 4.79221 34.6253C5.56071 33.8598 6.53983 33.3385 7.60577 33.1273C8.67171 32.9161 9.77658 33.0245 10.7807 33.4388C11.7848 33.8531 12.643 34.5546 13.2468 35.4548C13.8506 36.3549 14.1729 37.4132 14.1729 38.4958C14.1729 39.9475 13.5939 41.3397 12.5634 42.3663C11.5329 43.3928 10.1352 43.9695 8.67781 43.9695Z" fill="#7F6BF6"/>
<path d="M54.1104 44.9695C52.495 46.4361 50.388 47.2491 48.2022 47.2491C46.0164 47.2491 43.9094 46.4361 42.2939 44.9695C41.575 45.4739 40.9885 46.1432 40.5838 46.9209C40.1792 47.6987 39.9684 48.5619 39.9691 49.4379V54.36C39.9691 54.7952 40.1427 55.2126 40.4516 55.5204C40.7606 55.8282 41.1796 56.0011 41.6166 56.0011H54.7931C55.0094 56.0011 55.2237 55.9586 55.4236 55.8761C55.6234 55.7937 55.8051 55.6728 55.958 55.5204C56.111 55.368 56.2324 55.1871 56.3152 54.988C56.398 54.7889 56.4405 54.5755 56.4405 54.36V49.4379C56.4406 48.5615 56.2289 47.698 55.8234 46.9202C55.4178 46.1425 54.8303 45.4734 54.1104 44.9695Z" fill="#7F6BF6"/>
<path d="M48.2075 43.9695C47.1207 43.9695 46.0582 43.6484 45.1546 43.047C44.2509 42.4455 43.5466 41.5906 43.1307 40.5905C42.7148 39.5903 42.606 38.4897 42.818 37.4279C43.03 36.3661 43.5534 35.3908 44.3219 34.6253C45.0904 33.8598 46.0695 33.3385 47.1354 33.1273C48.2014 32.9161 49.3062 33.0245 50.3103 33.4388C51.3144 33.8531 52.1727 34.5546 52.7765 35.4548C53.3803 36.3549 53.7025 37.4132 53.7025 38.4958C53.7025 39.9475 53.1236 41.3397 52.0931 42.3663C51.0625 43.3928 49.6649 43.9695 48.2075 43.9695Z" fill="#7F6BF6"/>
<path d="M34.3451 44.9695C32.7296 46.4361 30.6226 47.2491 28.4368 47.2491C26.2511 47.2491 24.144 46.4361 22.5286 44.9695C21.8097 45.474 21.2232 46.1433 20.8186 46.921C20.414 47.6987 20.2031 48.562 20.2037 49.4379V54.36C20.2037 54.7952 20.3773 55.2126 20.6863 55.5204C20.9952 55.8282 21.4143 56.0011 21.8512 56.0011H35.0277C35.4647 56.0011 35.8837 55.8282 36.1927 55.5204C36.5016 55.2126 36.6752 54.7952 36.6752 54.36V49.4379C36.6753 48.5615 36.4637 47.6979 36.0581 46.9202C35.6526 46.1424 35.065 45.4733 34.3451 44.9695Z" fill="#7F6BF6"/>
<path d="M28.4421 43.9695C27.3553 43.9695 26.2929 43.6484 25.3892 43.047C24.4855 42.4455 23.7812 41.5906 23.3653 40.5905C22.9494 39.5903 22.8406 38.4897 23.0526 37.4279C23.2646 36.3661 23.788 35.3908 24.5565 34.6253C25.325 33.8598 26.3041 33.3385 27.3701 33.1273C28.436 32.9161 29.5409 33.0245 30.545 33.4388C31.5491 33.8531 32.4073 34.5546 33.0111 35.4548C33.6149 36.3549 33.9372 37.4132 33.9372 38.4958C33.9372 39.9475 33.3582 41.3397 32.3277 42.3663C31.2972 43.3928 29.8995 43.9695 28.4421 43.9695Z" fill="#7F6BF6"/>
</g>
<defs>
<clipPath id="clip0_1_794">
<rect width="56" height="56" fill="white" transform="translate(0.437378)"/>
</clipPath>
</defs>
</svg>
