<svg width="57" height="57" viewBox="0 0 57 57" fill="none" xmlns="http://www.w3.org/2000/svg">
<g clip-path="url(#clip0_1_1816)">
<path d="M22.53 22.5917C22.162 22.5908 21.7987 22.5099 21.4653 22.3546C21.132 22.1994 20.8366 21.9736 20.5999 21.693C20.3632 21.4124 20.1907 21.0837 20.0946 20.7299C19.9985 20.3761 19.9811 20.0056 20.0435 19.6444L20.8815 14.776L17.3308 11.3286C16.9935 11.0009 16.755 10.5858 16.6421 10.1302C16.5293 9.67461 16.5466 9.19664 16.6922 8.75032C16.8377 8.30399 17.1057 7.90712 17.4658 7.60454C17.8259 7.30196 18.2638 7.10574 18.7299 7.03806L23.6375 6.32753L25.8323 1.89806C26.0409 1.47721 26.3636 1.12289 26.7638 0.875139C27.1639 0.62739 27.6257 0.496094 28.0969 0.496094C28.5681 0.496094 29.0299 0.62739 29.4301 0.875139C29.8303 1.12289 30.1529 1.47721 30.3615 1.89806L32.5564 6.32753L37.4639 7.03806C37.9301 7.10574 38.368 7.30196 38.7281 7.60454C39.0882 7.90712 39.3561 8.30399 39.5017 8.75032C39.6472 9.19664 39.6645 9.67461 39.5517 10.1302C39.4388 10.5858 39.2003 11.0009 38.863 11.3286L35.3124 14.776L36.1504 19.6444C36.2298 20.1069 36.1778 20.5823 36.0002 21.017C35.8226 21.4516 35.5266 21.8281 35.1455 22.1039C34.7644 22.3797 34.3134 22.5439 33.8436 22.5778C33.3737 22.6118 32.9037 22.5141 32.4866 22.296L28.0937 20.0023L23.7051 22.3012C23.3428 22.4915 22.9395 22.5912 22.53 22.5917Z" fill="#ABFFC7"/>
<path d="M13.7601 27.1632C13.3814 27.1626 13.0086 27.0701 12.6738 26.8937L9.43065 25.1948L6.1875 26.8937C5.80287 27.0976 5.36848 27.1897 4.93386 27.1595C4.49923 27.1293 4.08186 26.9781 3.72934 26.7231C3.37681 26.4681 3.10332 26.1195 2.94006 25.7171C2.77679 25.3148 2.73031 24.8748 2.80592 24.4474L3.42517 20.8495L0.80128 18.3032C0.489953 18.0009 0.269745 17.6179 0.165554 17.1974C0.0613634 16.7769 0.0773467 16.3358 0.211697 15.9239C0.346046 15.5121 0.593404 15.1458 0.925799 14.8667C1.25819 14.5875 1.66237 14.4065 2.09262 14.3443L5.71936 13.8179L7.34146 10.5443C7.53384 10.1558 7.83152 9.82867 8.20082 9.59994C8.57012 9.37121 8.99631 9.25 9.43117 9.25C9.86604 9.25 10.2922 9.37121 10.6615 9.59994C11.0308 9.82867 11.3285 10.1558 11.5209 10.5443L13.143 13.8179L16.7697 14.3443C17.2011 14.4047 17.6068 14.5846 17.9404 14.8635C18.2741 15.1425 18.5224 15.5092 18.657 15.9219C18.7916 16.3346 18.8071 16.7766 18.7018 17.1976C18.5964 17.6187 18.3744 18.0018 18.0611 18.3032L15.4372 20.8506L16.0564 24.4485C16.1134 24.7815 16.0968 25.1229 16.0079 25.4489C15.9189 25.7749 15.7597 26.0776 15.5414 26.3361C15.323 26.5946 15.0507 26.8026 14.7435 26.9456C14.4362 27.0886 14.1014 27.1632 13.7622 27.1643L13.7601 27.1632Z" fill="#7F6BF6"/>
<path d="M51.0917 27.163C50.713 27.1624 50.3401 27.0699 50.0054 26.8935L46.7622 25.1945L43.5191 26.8935C43.1344 27.0973 42.7 27.1894 42.2654 27.1593C41.8308 27.1291 41.4134 26.9779 41.0609 26.7228C40.7084 26.4678 40.4349 26.1193 40.2716 25.7169C40.1083 25.3145 40.0619 24.8746 40.1375 24.4472L40.7567 20.8493L38.1328 18.303C37.8215 18.0007 37.6013 17.6176 37.4971 17.1972C37.3929 16.7767 37.4089 16.3356 37.5432 15.9237C37.6776 15.5118 37.9249 15.1456 38.2573 14.8664C38.5897 14.5873 38.9939 14.4063 39.4242 14.344L43.0509 13.8177L44.673 10.544C44.8641 10.1542 45.1612 9.82563 45.5306 9.59581C45.8999 9.36599 46.3267 9.24414 46.7622 9.24414C47.1977 9.24414 47.6244 9.36599 47.9938 9.59581C48.3632 9.82563 48.6603 10.1542 48.8514 10.544L50.4735 13.8177L54.1002 14.344C54.5316 14.4044 54.9373 14.5844 55.2709 14.8633C55.6046 15.1422 55.8529 15.5089 55.9875 15.9216C56.1221 16.3343 56.1377 16.7764 56.0323 17.1974C55.9269 17.6184 55.7049 18.0015 55.3916 18.303L52.7677 20.8503L53.3869 24.4482C53.4439 24.7812 53.4273 25.1226 53.3383 25.4486C53.2494 25.7746 53.0902 26.0774 52.8719 26.3359C52.6535 26.5944 52.3812 26.8024 52.074 26.9454C51.7667 27.0884 51.4319 27.163 51.0927 27.164L51.0917 27.163Z" fill="#7F6BF6"/>
<path d="M14.2399 45.4697C12.6244 46.9364 10.5174 47.7493 8.33164 47.7493C6.14587 47.7493 4.03885 46.9364 2.42338 45.4697C1.70413 45.974 1.11722 46.6432 0.712225 47.4209C0.307226 48.1986 0.0960192 49.062 0.0964362 49.9381V54.8602C0.0964362 55.2955 0.270008 55.7129 0.578967 56.0206C0.887926 56.3284 1.30696 56.5013 1.7439 56.5013H14.9194C15.3563 56.5013 15.7753 56.3284 16.0843 56.0206C16.3933 55.7129 16.5668 55.2955 16.5668 54.8602V49.9381C16.5673 49.062 16.356 48.1986 15.951 47.4209C15.5461 46.6432 14.9591 45.974 14.2399 45.4697Z" fill="#7F6BF6"/>
<path d="M8.33686 44.4698C7.25004 44.4698 6.18763 44.1488 5.28397 43.5474C4.38031 42.9459 3.67599 42.091 3.26009 41.0908C2.84418 40.0906 2.73536 38.9901 2.94739 37.9283C3.15941 36.8665 3.68277 35.8912 4.45127 35.1257C5.21977 34.3602 6.19889 33.8388 7.26483 33.6276C8.33077 33.4164 9.43564 33.5248 10.4397 33.9391C11.4438 34.3534 12.302 35.055 12.9058 35.9551C13.5097 36.8553 13.8319 37.9136 13.8319 38.9962C13.8319 40.4479 13.253 41.8401 12.2225 42.8666C11.1919 43.8931 9.79425 44.4698 8.33686 44.4698Z" fill="#7F6BF6"/>
<path d="M53.7695 45.4697C52.154 46.9364 50.047 47.7493 47.8612 47.7493C45.6755 47.7493 43.5685 46.9364 41.953 45.4697C41.2341 45.9742 40.6475 46.6435 40.2429 47.4212C39.8382 48.1989 39.6274 49.0622 39.6282 49.9381V54.8602C39.6282 55.2955 39.8017 55.7129 40.1107 56.0206C40.4196 56.3284 40.8387 56.5013 41.2756 56.5013H54.4522C54.6685 56.5013 54.8827 56.4589 55.0826 56.3764C55.2825 56.2939 55.4641 56.173 55.6171 56.0206C55.7701 55.8683 55.8914 55.6874 55.9742 55.4883C56.057 55.2892 56.0996 55.0757 56.0996 54.8602V49.9381C56.0997 49.0617 55.888 48.1982 55.4824 47.4205C55.0769 46.6427 54.4893 45.9736 53.7695 45.4697Z" fill="#7F6BF6"/>
<path d="M47.8667 44.4698C46.7798 44.4698 45.7174 44.1488 44.8138 43.5474C43.9101 42.9459 43.2058 42.091 42.7899 41.0908C42.374 40.0906 42.2651 38.9901 42.4772 37.9283C42.6892 36.8665 43.2126 35.8912 43.9811 35.1257C44.7496 34.3602 45.7287 33.8388 46.7946 33.6276C47.8605 33.4164 48.9654 33.5248 49.9695 33.9391C50.9736 34.3534 51.8318 35.055 52.4356 35.9551C53.0395 36.8553 53.3617 37.9136 53.3617 38.9962C53.3617 40.4479 52.7828 41.8401 51.7523 42.8666C50.7217 43.8931 49.324 44.4698 47.8667 44.4698Z" fill="#7F6BF6"/>
<path d="M34.0041 45.4697C32.3887 46.9364 30.2817 47.7493 28.0959 47.7493C25.9101 47.7493 23.8031 46.9364 22.1876 45.4697C21.4688 45.9742 20.8823 46.6435 20.4776 47.4212C20.073 48.1989 19.8621 49.0622 19.8628 49.9381V54.8602C19.8628 55.2955 20.0364 55.7129 20.3453 56.0206C20.6543 56.3284 21.0733 56.5013 21.5103 56.5013H34.6868C35.1237 56.5013 35.5428 56.3284 35.8517 56.0206C36.1607 55.7129 36.3343 55.2955 36.3343 54.8602V49.9381C36.3344 49.0617 36.1228 48.1982 35.7172 47.4204C35.3116 46.6427 34.724 45.9736 34.0041 45.4697Z" fill="#7F6BF6"/>
<path d="M28.1013 44.4698C27.0144 44.4698 25.952 44.1488 25.0484 43.5474C24.1447 42.9459 23.4404 42.091 23.0245 41.0908C22.6086 40.0906 22.4998 38.9901 22.7118 37.9283C22.9238 36.8665 23.4472 35.8912 24.2157 35.1257C24.9842 34.3602 25.9633 33.8388 27.0292 33.6276C28.0952 33.4164 29.2001 33.5248 30.2041 33.9391C31.2082 34.3534 32.0664 35.055 32.6702 35.9551C33.274 36.8553 33.5963 37.9136 33.5963 38.9962C33.5963 40.4479 33.0174 41.8401 31.9869 42.8666C30.9563 43.8931 29.5586 44.4698 28.1013 44.4698Z" fill="#7F6BF6"/>
</g>
<defs>
<clipPath id="clip0_1_1816">
<rect width="56" height="56" fill="white" transform="translate(0.0964355 0.5)"/>
</clipPath>
</defs>
</svg>
