<?xml version="1.0" standalone="no"?>
<!DOCTYPE svg PUBLIC "-//W3C//DTD SVG 20010904//EN"
 "http://www.w3.org/TR/2001/REC-SVG-20010904/DTD/svg10.dtd">
<svg version="1.0" xmlns="http://www.w3.org/2000/svg"
 width="256.000000pt" height="256.000000pt" viewBox="0 0 256.000000 256.000000"
 preserveAspectRatio="xMidYMid meet">

<g transform="translate(0.000000,256.000000) scale(0.100000,-0.100000)"
fill="#000000" stroke="none">
<path d="M505 2233 c-180 -24 -357 -152 -439 -316 -85 -173 -86 -347 -1 -526
27 -55 55 -93 113 -151 115 -115 245 -170 404 -170 101 0 167 14 254 56 99 46
173 110 232 198 68 101 93 178 99 301 9 177 -41 310 -166 435 -135 136 -311
198 -496 173z m113 -219 c21 -15 22 -21 22 -177 l0 -162 80 -80 c83 -82 95
-109 64 -139 -31 -32 -56 -18 -156 81 l-98 98 0 177 c0 165 2 180 20 198 24
24 38 25 68 4z"/>
<path d="M1270 1902 l-22 -18 17 -78 c25 -110 17 -262 -19 -372 -65 -200 -233
-369 -437 -439 -73 -25 -102 -29 -218 -32 -84 -2 -139 -8 -148 -15 -12 -9 -14
-39 -11 -144 3 -129 4 -133 33 -176 34 -47 88 -82 144 -92 32 -6 39 -13 65
-67 95 -203 384 -195 476 14 l21 47 327 -2 326 -3 10 -33 c12 -44 79 -118 128
-143 129 -66 290 -11 353 119 l30 61 85 1 c61 0 92 4 108 16 l22 15 0 342 0
342 -228 228 -227 227 -198 0 -197 1 0 89 c0 133 6 130 -229 130 -167 0 -191
-2 -211 -18z m638 -425 c7 -8 13 -72 14 -158 l3 -144 144 -3 c89 -2 150 -7
158 -14 8 -6 13 -25 11 -42 -5 -49 -31 -56 -216 -56 -160 0 -163 0 -187 25
-25 24 -25 27 -25 192 0 136 3 173 16 191 17 25 65 30 82 9z m-912 -758 c36
-22 74 -90 74 -132 0 -100 -106 -182 -201 -157 -77 21 -119 77 -119 158 0 63
30 109 90 140 52 27 103 24 156 -9z m1154 9 c65 -34 85 -67 85 -141 0 -49 -5
-69 -23 -95 -69 -96 -219 -85 -272 19 -41 80 -12 173 69 216 55 29 85 29 141
1z"/>
</g>
</svg>
