<svg width="56" height="56" viewBox="0 0 56 56" fill="none" xmlns="http://www.w3.org/2000/svg">
<g clip-path="url(#clip0_1_743)">
<path d="M40.0286 51.0784C40.0286 52.3839 40.549 53.6358 41.4752 54.5589C42.4015 55.482 43.6577 56.0005 44.9677 56.0005C46.2776 56.0005 47.5338 55.482 48.4601 54.5589C49.3863 53.6358 49.9067 52.3839 49.9067 51.0784V44.5156C49.9067 44.3001 49.8641 44.0867 49.7813 43.8876C49.6985 43.6886 49.5772 43.5077 49.4242 43.3554C49.2713 43.2031 49.0898 43.0823 48.89 42.9999C48.6902 42.9176 48.476 42.8752 48.2598 42.8754H40.0286V51.0784Z" fill="#ABFFC7"/>
<path d="M36.254 3.76177L32.9613 0.480346C32.8085 0.32802 32.627 0.207187 32.4273 0.124748C32.2276 0.042309 32.0136 -0.00012207 31.7974 -0.00012207C31.5813 -0.00012207 31.3673 0.042309 31.1676 0.124748C30.9679 0.207187 30.7864 0.32802 30.6336 0.480346L28.5048 2.60191L26.3759 0.480346C26.2231 0.32802 26.0416 0.207187 25.842 0.124748C25.6423 0.042309 25.4282 -0.00012207 25.2121 -0.00012207C24.9959 -0.00012207 24.7819 0.042309 24.5822 0.124748C24.3825 0.207187 24.2011 0.32802 24.0482 0.480346L21.9204 2.60191L19.7916 0.480346C19.6388 0.32802 19.4573 0.207187 19.2576 0.124748C19.0579 0.042309 18.8439 -0.00012207 18.6278 -0.00012207C18.4116 -0.00012207 18.1976 0.042309 17.9979 0.124748C17.7982 0.207187 17.6168 0.32802 17.4639 0.480346L15.3351 2.60191L13.2062 0.480346C13.0534 0.32802 12.872 0.207187 12.6723 0.124748C12.4726 0.042309 12.2585 -0.00012207 12.0424 -0.00012207C11.8262 -0.00012207 11.6122 0.042309 11.4125 0.124748C11.2128 0.207187 11.0314 0.32802 10.8786 0.480346L8.74971 2.60191L6.62086 0.480346C6.46803 0.32802 6.28659 0.207187 6.0869 0.124748C5.88721 0.042309 5.67318 -0.00012207 5.45703 -0.00012207C5.24088 -0.00012207 5.02685 0.042309 4.82716 0.124748C4.62746 0.207187 4.44602 0.32802 4.29319 0.480346L1.00051 3.76177C0.847636 3.91406 0.726384 4.09488 0.643681 4.29389C0.560979 4.49291 0.51845 4.70622 0.518524 4.92163V49.4372C0.520178 51.1772 1.21452 52.8456 2.44916 54.076C3.68379 55.3064 5.35785 55.9984 7.10389 56H38.4245C37.3356 54.5882 36.7424 52.859 36.736 51.0784V4.92163C36.736 4.70622 36.6935 4.49291 36.6108 4.29389C36.5281 4.09488 36.4068 3.91406 36.254 3.76177ZM12.0424 13.2336H25.2121C25.6487 13.2336 26.0675 13.4065 26.3762 13.7142C26.685 14.0218 26.8584 14.4392 26.8584 14.8743C26.8584 15.3095 26.685 15.7268 26.3762 16.0345C26.0675 16.3422 25.6487 16.515 25.2121 16.515H12.0424C11.6058 16.515 11.187 16.3422 10.8783 16.0345C10.5695 15.7268 10.3961 15.3095 10.3961 14.8743C10.3961 14.4392 10.5695 14.0218 10.8783 13.7142C11.187 13.4065 11.6058 13.2336 12.0424 13.2336ZM18.6319 46.1557H8.74971C8.31308 46.1557 7.89432 45.9829 7.58557 45.6752C7.27682 45.3675 7.10337 44.9502 7.10337 44.515C7.10337 44.0799 7.27682 43.6626 7.58557 43.3549C7.89432 43.0472 8.31308 42.8743 8.74971 42.8743H18.6319C19.0686 42.8743 19.4873 43.0472 19.7961 43.3549C20.1048 43.6626 20.2783 44.0799 20.2783 44.515C20.2783 44.9502 20.1048 45.3675 19.7961 45.6752C19.4873 45.9829 19.0686 46.1557 18.6319 46.1557ZM18.6319 39.5929H8.74971C8.31308 39.5929 7.89432 39.42 7.58557 39.1123C7.27682 38.8046 7.10337 38.3873 7.10337 37.9522C7.10337 37.517 7.27682 37.0997 7.58557 36.792C7.89432 36.4843 8.31308 36.3115 8.74971 36.3115H18.6319C19.0686 36.3115 19.4873 36.4843 19.7961 36.792C20.1048 37.0997 20.2783 37.517 20.2783 37.9522C20.2783 38.3873 20.1048 38.8046 19.7961 39.1123C19.4873 39.42 19.0686 39.5929 18.6319 39.5929ZM18.6319 33.03H8.74971C8.31308 33.03 7.89432 32.8572 7.58557 32.5495C7.27682 32.2418 7.10337 31.8245 7.10337 31.3893C7.10337 30.9542 7.27682 30.5369 7.58557 30.2292C7.89432 29.9215 8.31308 29.7486 8.74971 29.7486H18.6319C19.0686 29.7486 19.4873 29.9215 19.7961 30.2292C20.1048 30.5369 20.2783 30.9542 20.2783 31.3893C20.2783 31.8245 20.1048 32.2418 19.7961 32.5495C19.4873 32.8572 19.0686 33.03 18.6319 33.03ZM18.6319 26.4672H8.74971C8.31308 26.4672 7.89432 26.2943 7.58557 25.9866C7.27682 25.6789 7.10337 25.2616 7.10337 24.8265C7.10337 24.3913 7.27682 23.974 7.58557 23.6663C7.89432 23.3586 8.31308 23.1858 8.74971 23.1858H18.6319C19.0686 23.1858 19.4873 23.3586 19.7961 23.6663C20.1048 23.974 20.2783 24.3913 20.2783 24.8265C20.2783 25.2616 20.1048 25.6789 19.7961 25.9866C19.4873 26.2943 19.0686 26.4672 18.6319 26.4672ZM28.51 46.1547H25.2121C24.7754 46.1547 24.3567 45.9818 24.0479 45.6741C23.7392 45.3665 23.5657 44.9491 23.5657 44.514C23.5657 44.0788 23.7392 43.6615 24.0479 43.3538C24.3567 43.0461 24.7754 42.8733 25.2121 42.8733H28.5048C28.9414 42.8733 29.3602 43.0461 29.6689 43.3538C29.9777 43.6615 30.1511 44.0788 30.1511 44.514C30.1511 44.9491 29.9777 45.3665 29.6689 45.6741C29.3602 45.9818 28.9414 46.1547 28.5048 46.1547H28.51ZM28.51 39.5919H25.2121C24.7754 39.5919 24.3567 39.419 24.0479 39.1113C23.7392 38.8036 23.5657 38.3863 23.5657 37.9511C23.5657 37.516 23.7392 37.0987 24.0479 36.791C24.3567 36.4833 24.7754 36.3104 25.2121 36.3104H28.5048C28.9414 36.3104 29.3602 36.4833 29.6689 36.791C29.9777 37.0987 30.1511 37.516 30.1511 37.9511C30.1511 38.3863 29.9777 38.8036 29.6689 39.1113C29.3602 39.419 28.9414 39.5919 28.5048 39.5919H28.51ZM28.51 33.029H25.2121C24.7754 33.029 24.3567 32.8561 24.0479 32.5485C23.7392 32.2408 23.5657 31.8234 23.5657 31.3883C23.5657 30.9531 23.7392 30.5358 24.0479 30.2281C24.3567 29.9204 24.7754 29.7476 25.2121 29.7476H28.5048C28.9414 29.7476 29.3602 29.9204 29.6689 30.2281C29.9777 30.5358 30.1511 30.9531 30.1511 31.3883C30.1511 31.8234 29.9777 32.2408 29.6689 32.5485C29.3602 32.8561 28.9414 33.029 28.5048 33.029H28.51ZM28.51 26.4662H25.2121C24.7754 26.4662 24.3567 26.2933 24.0479 25.9856C23.7392 25.6779 23.5657 25.2606 23.5657 24.8254C23.5657 24.3903 23.7392 23.973 24.0479 23.6653C24.3567 23.3576 24.7754 23.1847 25.2121 23.1847H28.5048C28.9414 23.1847 29.3602 23.3576 29.6689 23.6653C29.9777 23.973 30.1511 24.3903 30.1511 24.8254C30.1511 25.2606 29.9777 25.6779 29.6689 25.9856C29.3602 26.2933 28.9414 26.4662 28.5048 26.4662H28.51Z" fill="#ABFFC7"/>
<path d="M41.181 15.7815C39.3463 15.7815 37.5528 16.3237 36.0274 17.3395C34.5019 18.3553 33.3129 19.7991 32.6108 21.4884C31.9087 23.1776 31.725 25.0364 32.0829 26.8297C32.4408 28.623 33.3243 30.2702 34.6216 31.5631C35.919 32.856 37.5719 33.7364 39.3713 34.0931C41.1707 34.4498 43.0359 34.2668 44.7309 33.5671C46.426 32.8674 47.8747 31.6824 48.894 30.1622C49.9133 28.6419 50.4574 26.8545 50.4574 25.0261C50.4546 22.5751 49.4764 20.2253 47.7373 18.4922C45.9983 16.7591 43.6404 15.7842 41.181 15.7815ZM43.6742 22.0373H44.5164C44.7388 22.0373 44.9521 22.1253 45.1093 22.282C45.2666 22.4387 45.3549 22.6513 45.3549 22.8729C45.3549 23.0946 45.2666 23.3071 45.1093 23.4638C44.9521 23.6205 44.7388 23.7086 44.5164 23.7086H43.6836C43.504 24.6128 43.0319 25.4334 42.3396 26.0446C41.6473 26.6559 40.773 27.024 39.8506 27.0927L43.4848 30.7144C43.642 30.8711 43.7303 31.0836 43.7303 31.3052C43.7303 31.5268 43.642 31.7394 43.4848 31.8961C43.3275 32.0528 43.1143 32.1408 42.8919 32.1408C42.6695 32.1408 42.4563 32.0528 42.2991 31.8961L37.245 26.8593C37.1269 26.7425 37.0463 26.5933 37.0135 26.4307C36.9807 26.2681 36.9972 26.0995 37.0608 25.9463C37.1244 25.793 37.2323 25.6621 37.3707 25.5701C37.5092 25.4781 37.672 25.4293 37.8384 25.4297H39.5425C40.0744 25.4291 40.5928 25.2624 41.0248 24.9532C41.4569 24.6439 41.7809 24.2076 41.9514 23.7055H37.8238C37.6015 23.7055 37.3884 23.6175 37.2312 23.4609C37.0741 23.3042 36.9858 23.0918 36.9858 22.8703C36.9858 22.6488 37.0741 22.4364 37.2312 22.2798C37.3884 22.1232 37.6015 22.0352 37.8238 22.0352H41.9357C41.7756 21.5928 41.4954 21.2034 41.1264 20.9104C40.7573 20.6173 40.3139 20.4321 39.8454 20.3753H37.8675C37.6396 20.3742 37.4211 20.2843 37.2588 20.1247C37.0965 19.9651 37.0034 19.7486 36.9993 19.5215C36.9993 19.4118 37.021 19.3032 37.0631 19.2019C37.1052 19.1005 37.167 19.0085 37.2448 18.9309C37.3226 18.8534 37.415 18.7919 37.5166 18.7499C37.6183 18.7079 37.7273 18.6863 37.8373 18.6863C39.3551 18.6915 43.0236 18.7009 44.5362 18.705C44.7584 18.705 44.9716 18.793 45.1287 18.9496C45.2859 19.1062 45.3742 19.3186 45.3742 19.5401C45.3742 19.7616 45.2859 19.9741 45.1287 20.1307C44.9716 20.2873 44.7584 20.3753 44.5362 20.3753H42.9205C43.2896 20.8654 43.5461 21.4303 43.6721 22.03L43.6742 22.0373Z" fill="#5C3DEB"/>
<path d="M41.1821 10.7697C38.3525 10.7697 35.5865 11.6058 33.2338 13.1725C30.8811 14.7391 29.0475 16.9658 27.9646 19.5711C26.8818 22.1763 26.5985 25.043 27.1505 27.8087C27.7025 30.5744 29.0651 33.1149 31.0659 35.1088C33.0667 37.1028 35.6158 38.4607 38.391 39.0108C41.1662 39.5609 44.0428 39.2786 46.6569 38.1995C49.2711 37.1203 51.5055 35.2929 53.0775 32.9483C54.6495 30.6036 55.4885 27.8471 55.4885 25.0272C55.4896 23.1546 55.1203 21.3001 54.4018 19.5698C53.6832 17.8395 52.6294 16.2673 51.3007 14.9432C49.972 13.619 48.3945 12.5688 46.6582 11.8527C44.922 11.1366 43.0611 10.7686 41.1821 10.7697ZM41.1821 35.9431C39.0157 35.9431 36.898 35.3029 35.0967 34.1035C33.2954 32.904 31.8915 31.1992 31.0625 29.2045C30.2334 27.2099 30.0165 25.0151 30.4391 22.8976C30.8618 20.7801 31.905 18.8351 33.4369 17.3085C34.9687 15.7818 36.9204 14.7422 39.0452 14.321C41.1699 13.8998 43.3723 14.116 45.3738 14.9422C47.3752 15.7684 49.0859 17.1675 50.2895 18.9626C51.4931 20.7577 52.1355 22.8682 52.1355 25.0272C52.1322 27.9213 50.9771 30.6959 48.9237 32.7423C46.8702 34.7887 44.0861 35.9399 41.1821 35.9431Z" fill="#5C3DEB"/>
</g>
<defs>
<clipPath id="clip0_1_743">
<rect width="54.97" height="56" fill="white" transform="translate(0.518524)"/>
</clipPath>
</defs>
</svg>
