<svg width="57" height="56" viewBox="0 0 57 56" fill="none" xmlns="http://www.w3.org/2000/svg">
<g clip-path="url(#clip0_1_755)">
<path d="M10.1487 39.5933C9.85999 39.5934 9.57646 39.6697 9.3267 39.8145C9.07695 39.9592 8.8698 40.1673 8.72617 40.4177L5.43292 46.1558H18.8277L20.0856 39.5933H10.1487Z" fill="#7F6BF6"/>
<path d="M52.5206 46.1558L49.2274 40.4177C49.0835 40.167 48.876 39.9587 48.6258 39.8139C48.3756 39.6691 48.0916 39.593 47.8026 39.5933H37.868L39.1258 46.1558H52.5206Z" fill="#7F6BF6"/>
<path d="M3.55078 49.4376L1.1952 53.5427C1.05211 53.7922 0.977096 54.0748 0.977664 54.3624C0.978233 54.65 1.05437 54.9324 1.19844 55.1813C1.34251 55.4301 1.54946 55.6368 1.79855 55.7805C2.04764 55.9242 2.33012 56 2.6177 56.0001H16.9456L18.2034 49.4376H3.55078Z" fill="#7F6BF6"/>
<path d="M56.7595 53.5427L54.4039 49.4376H39.7536L41.0114 56.0001H55.3393C55.6269 56 55.9094 55.9242 56.1585 55.7805C56.4076 55.6368 56.6145 55.4301 56.7586 55.1813C56.9026 54.9324 56.9788 54.65 56.9793 54.3624C56.9799 54.0748 56.9049 53.7922 56.7618 53.5427H56.7595Z" fill="#7F6BF6"/>
<path d="M21.5412 49.4376L20.2834 56.0001H37.6644L36.4066 49.4376H21.5412Z" fill="#7F6BF6"/>
<path d="M41.8358 7.55388C40.5592 5.26388 38.6942 3.35635 36.4335 2.02843C34.1728 0.700507 31.5986 0.000366211 28.9768 0.000366211C26.3549 0.000366211 23.7807 0.700507 21.52 2.02843C19.2594 3.35635 17.3943 5.26388 16.1177 7.55388C14.8235 9.83859 14.172 12.4311 14.2324 15.0562C14.2928 17.6813 15.0628 20.241 16.4607 22.4638L27.5868 40.4554C27.7339 40.6933 27.9393 40.8896 28.1836 41.0257C28.4278 41.1619 28.7028 41.2333 28.9825 41.2333C29.2621 41.2333 29.5371 41.1619 29.7814 41.0257C30.0256 40.8896 30.231 40.6933 30.3781 40.4554L41.5042 22.4638C42.9021 20.241 43.6721 17.6813 43.7325 15.0562C43.7929 12.4311 43.1415 9.83859 41.8473 7.55388H41.8358ZM28.9762 22.9452C27.3537 22.9452 25.7677 22.4641 24.4186 21.5627C23.0696 20.6613 22.0181 19.3801 21.3973 17.8811C20.7764 16.3822 20.6139 14.7327 20.9304 13.1414C21.247 11.5501 22.0283 10.0884 23.1755 8.94118C24.3228 7.79391 25.7845 7.01262 27.3758 6.69609C28.9671 6.37956 30.6165 6.54201 32.1155 7.16291C33.6145 7.7838 34.8956 8.83525 35.797 10.1843C36.6984 11.5333 37.1796 13.1194 37.1796 14.7418C37.1771 16.9168 36.3121 19.0019 34.7742 20.5398C33.2363 22.0777 31.1511 22.9428 28.9762 22.9452Z" fill="#ABFFC7"/>
<path d="M28.9762 19.6635C31.6943 19.6635 33.8978 17.46 33.8978 14.7419C33.8978 12.0238 31.6943 9.82031 28.9762 9.82031C26.2581 9.82031 24.0546 12.0238 24.0546 14.7419C24.0546 17.46 26.2581 19.6635 28.9762 19.6635Z" fill="#7F6BF6"/>
<path d="M28.9773 44.516C28.1379 44.5189 27.3119 44.3058 26.5787 43.897C25.8455 43.4883 25.2299 42.8977 24.791 42.1821L23.3697 39.8826L22.1702 46.1557H35.7868L34.5873 39.8826L33.1648 42.1821C32.7259 42.8979 32.11 43.4885 31.3766 43.8973C30.6432 44.3061 29.817 44.5191 28.9773 44.516Z" fill="#7F6BF6"/>
</g>
<defs>
<clipPath id="clip0_1_755">
<rect width="56" height="56" fill="white" transform="translate(0.976807)"/>
</clipPath>
</defs>
</svg>
