<svg width="57" height="66" viewBox="0 0 57 66" fill="none" xmlns="http://www.w3.org/2000/svg">
<g clip-path="url(#clip0_1_687)">
<mask id="mask0_1_687" style="mask-type:luminance" maskUnits="userSpaceOnUse" x="9" y="9" width="39" height="57">
<path d="M47.6146 9.39062H9.83331V65.3906H47.6146V9.39062Z" fill="white"/>
</mask>
<g mask="url(#mask0_1_687)">
<path d="M21.3623 16.6999C26.1946 15.5116 31.2428 15.5116 36.0751 16.6999H36.2711C36.3879 16.7101 36.5055 16.6945 36.6156 16.6542C36.7257 16.6139 36.8255 16.5498 36.9081 16.4666C37.006 16.3608 37.0754 16.2318 37.1097 16.0918C37.1439 15.9518 37.142 15.8053 37.1041 15.6662C36.58 13.856 35.4821 12.2649 33.9755 11.1327C32.469 10.0004 30.6354 9.38818 28.7508 9.38818C26.8662 9.38818 25.0326 10.0004 23.526 11.1327C22.0195 12.2649 20.9215 13.856 20.3974 15.6662C20.3554 15.8046 20.3509 15.9517 20.3844 16.0923C20.4179 16.233 20.4881 16.3623 20.5879 16.4669C20.6877 16.5716 20.8134 16.6479 20.9524 16.688C21.0913 16.7281 21.2384 16.7306 21.3786 16.6952L21.3623 16.6999Z" fill="#7F6BF6"/>
<path d="M19.4314 23.0747H19.6274L26.0849 22.3233C27.8396 22.127 29.6106 22.127 31.3653 22.3233L37.8228 23.042C38.1197 23.0823 38.4218 23.0301 38.688 22.8926C38.9542 22.755 39.1714 22.5387 39.3103 22.2732C39.4592 22.0213 39.5279 21.7301 39.507 21.4383C39.4862 21.1464 39.3768 20.8679 39.1936 20.6398L37.8893 18.8898C37.7871 18.7519 37.645 18.6488 37.4821 18.5947C31.7852 16.8288 25.6872 16.8288 19.9903 18.5947C19.8275 18.649 19.6853 18.752 19.5831 18.8898L18.2776 20.69C18.0992 20.9209 17.9943 21.2001 17.9766 21.4914C17.9589 21.7827 18.0292 22.0725 18.1784 22.3233C18.3004 22.551 18.4819 22.7412 18.7037 22.8735C18.9254 23.0059 19.179 23.0754 19.4373 23.0747H19.4314Z" fill="#7F6BF6"/>
<path d="M31.2171 23.8446C29.5885 23.6693 27.9458 23.6693 26.3171 23.8446L20.9225 24.428C20.8134 24.4387 20.7076 24.4718 20.6119 24.5252C20.5161 24.5786 20.4324 24.6511 20.366 24.7383C20.232 24.9103 20.1678 25.1266 20.1863 25.3438C20.4132 27.466 21.4168 29.4293 23.0042 30.8559C24.5915 32.2826 26.6504 33.0719 28.7846 33.0719C30.9189 33.0719 32.9777 32.2826 34.5651 30.8559C36.1524 29.4293 37.1561 27.466 37.383 25.3438C37.4015 25.1266 37.3373 24.9103 37.2033 24.7383C37.1367 24.6512 37.053 24.5788 36.9573 24.5254C36.8615 24.472 36.7559 24.4388 36.6468 24.428L31.2171 23.8446Z" fill="#7F6BF6"/>
<path d="M46.21 59.5328C45.6902 60.123 45.0506 60.5957 44.3338 60.9194C43.6171 61.2431 42.8396 61.4103 42.0531 61.41H16.2896C16.236 61.4187 16.1818 61.4234 16.1275 61.424H15.375C14.5895 61.4234 13.8133 61.2556 13.0977 60.9317C12.3822 60.6079 11.7439 60.1354 11.2251 59.5457C10.7104 58.9556 10.3241 58.265 10.0907 57.5176C9.85731 56.7703 9.78197 55.9825 9.86945 55.2045L11.077 45.3928C11.6871 40.5593 14.4463 36.728 17.9603 35.881H18.0688C25.0533 34.192 32.3398 34.192 39.3243 35.881H39.5343C42.9981 36.714 45.7643 40.4706 46.3675 45.38L47.575 55.18C47.6635 55.9606 47.5878 56.7511 47.3527 57.5007C47.1177 58.2504 46.7284 58.9425 46.21 59.5328Z" fill="#ABFFC7"/>
<path d="M31.1179 48.3573V52.4523C31.1176 52.5423 31.0818 52.6285 31.0182 52.6921C30.9545 52.7557 30.8684 52.7915 30.7784 52.7918H26.6834C26.5944 52.7889 26.5099 52.7522 26.447 52.6891C26.3842 52.626 26.3477 52.5414 26.3451 52.4523V48.3573C26.3451 48.2675 26.3807 48.1813 26.4441 48.1177C26.5075 48.0541 26.5936 48.0181 26.6834 48.0178H30.7784C30.8231 48.0174 30.8675 48.0258 30.9089 48.0427C30.9503 48.0596 30.9879 48.0846 31.0195 48.1162C31.0512 48.1479 31.0761 48.1855 31.093 48.2269C31.1099 48.2683 31.1184 48.3126 31.1179 48.3573Z" fill="#5B3DEB"/>
<path d="M38.9953 61.4111V64.5775C38.9953 64.7941 38.9092 65.0018 38.7561 65.1549C38.6029 65.3081 38.3952 65.3941 38.1786 65.3941H19.2856C19.069 65.3941 18.8613 65.3081 18.7081 65.1549C18.555 65.0018 18.4689 64.7941 18.4689 64.5775V61.4111H38.9953Z" fill="#7F6BF6"/>
<path d="M38.9953 53.5597V61.409H18.4655V53.5597C18.4659 52.8318 18.6097 52.1111 18.8887 51.4388C19.1677 50.7665 19.5764 50.1557 20.0914 49.6413C20.6064 49.127 21.2177 48.7191 21.8904 48.4409C22.563 48.1628 23.2839 48.0199 24.0118 48.0203C24.2284 48.0203 24.4361 48.1064 24.5893 48.2595C24.7424 48.4127 24.8285 48.6204 24.8285 48.837V53.5632C24.8326 53.7616 24.9134 53.9508 25.0539 54.0911C25.1944 54.2313 25.3836 54.3118 25.5821 54.3157H31.8938C32.0921 54.3115 32.281 54.2309 32.4213 54.0907C32.5615 53.9504 32.6421 53.7614 32.6463 53.5632V48.8335C32.6463 48.6169 32.7323 48.4092 32.8855 48.256C33.0386 48.1029 33.2464 48.0168 33.463 48.0168C34.1905 48.0165 34.9109 48.1596 35.5831 48.4379C36.2553 48.7161 36.8661 49.1242 37.3805 49.6386C37.895 50.153 38.303 50.7638 38.5813 51.436C38.8595 52.1082 39.0026 52.8287 39.0023 53.5562" fill="#5B3DEB"/>
</g>
</g>
<defs>
<clipPath id="clip0_1_687">
<rect width="56" height="56" fill="white" transform="translate(0.5 9.39062)"/>
</clipPath>
</defs>
</svg>
