<?xml version="1.0" standalone="no"?>
<!DOCTYPE svg PUBLIC "-//W3C//DTD SVG 20010904//EN"
 "http://www.w3.org/TR/2001/REC-SVG-20010904/DTD/svg10.dtd">
<svg version="1.0" xmlns="http://www.w3.org/2000/svg"
 width="512.000000pt" height="330.000000pt" viewBox="0 0 512.000000 330.000000"
 preserveAspectRatio="xMidYMid meet">

<g transform="translate(0.000000,330.000000) scale(0.100000,-0.100000)"
fill="#000000" stroke="none">
<path d="M822 3269 c-209 -44 -365 -130 -522 -289 -143 -144 -215 -270 -272
-478 -18 -63 -21 -105 -21 -237 0 -142 3 -171 26 -260 131 -489 596 -815 1091
-765 497 50 875 428 928 927 12 118 0 252 -33 373 -23 83 -93 240 -107 240 -9
0 -72 -74 -72 -86 0 -3 15 -45 34 -93 138 -345 50 -748 -218 -998 -83 -78
-136 -114 -238 -163 -491 -235 -1090 22 -1256 540 -45 141 -56 325 -26 468 59
288 273 548 543 657 209 85 449 89 669 12 l64 -22 34 39 c19 22 34 42 34 46 0
18 -169 76 -279 95 -114 20 -266 18 -379 -6z"/>
<path d="M1664 3058 c-100 -75 -405 -437 -558 -663 -26 -38 -50 -72 -52 -74
-2 -2 -25 16 -52 41 -27 25 -67 58 -91 72 -39 25 -48 27 -139 24 -96 -3 -97
-3 -100 -29 -2 -20 8 -34 59 -75 113 -89 258 -283 309 -411 7 -18 15 -33 19
-33 3 0 35 53 71 117 141 254 419 649 634 902 39 46 84 99 99 117 l28 34 -98
0 c-87 0 -103 -3 -129 -22z"/>
<path d="M981 3044 c-32 -41 -29 -126 5 -160 19 -20 31 -24 52 -19 47 11 57
30 57 101 0 57 -3 68 -24 85 -33 27 -66 24 -90 -7z"/>
<path d="M2122 3011 c2 -5 19 -36 38 -69 l35 -61 500 -3 c465 -3 503 -4 529
-21 58 -39 56 12 56 -1187 l0 -1100 -209 0 c-188 0 -211 -2 -232 -18 -31 -26
-31 -78 0 -104 21 -16 45 -18 281 -18 l259 0 20 26 c15 19 21 41 21 75 l0 49
138 0 138 0 17 92 c55 291 288 488 577 488 285 0 516 -200 578 -498 l17 -82
111 0 c93 0 113 3 118 16 21 55 -3 353 -40 474 -48 163 -173 324 -321 412 -90
54 -250 110 -372 130 -53 9 -87 19 -92 28 -4 8 -18 51 -32 96 -45 145 -180
419 -235 477 -55 59 -65 61 -344 65 l-257 4 -3 272 -3 271 -31 55 c-37 66
-101 113 -174 129 -63 14 -1093 15 -1088 2z m1731 -1006 c46 -66 168 -303 182
-352 l6 -23 -225 0 -226 0 0 225 0 226 107 -3 108 -3 48 -70z"/>
<path d="M611 2944 c-28 -35 -26 -50 9 -107 40 -63 71 -78 108 -50 37 27 39
63 7 118 -42 71 -88 85 -124 39z"/>
<path d="M345 2675 c-43 -42 -30 -79 42 -120 56 -31 89 -29 116 7 29 39 10 78
-53 112 -59 32 -74 32 -105 1z"/>
<path d="M241 2304 c-26 -33 -27 -58 -1 -84 16 -16 33 -20 85 -20 52 0 69 4
85 20 26 26 25 51 -1 84 -18 23 -27 26 -84 26 -57 0 -66 -3 -84 -26z"/>
<path d="M1650 2310 c-24 -24 -26 -57 -4 -88 13 -19 24 -22 83 -22 55 0 71 4
86 20 24 27 22 70 -5 92 -33 26 -133 25 -160 -2z"/>
<path d="M405 1979 c-47 -24 -85 -63 -85 -87 0 -34 29 -62 64 -62 43 0 123 52
132 85 6 25 -17 75 -35 75 -5 0 -15 2 -23 5 -7 3 -31 -4 -53 -16z"/>
<path d="M1580 1987 c-31 -15 -49 -61 -34 -85 14 -22 71 -61 101 -68 36 -9 69
3 81 32 18 38 -3 74 -63 106 -58 32 -53 31 -85 15z"/>
<path d="M646 1725 c-12 -13 -31 -43 -41 -66 -17 -37 -17 -44 -4 -68 15 -27
45 -37 83 -27 25 6 76 90 76 125 0 29 -35 61 -65 61 -15 0 -36 -11 -49 -25z"/>
<path d="M1317 1732 c-25 -27 -20 -71 13 -124 26 -42 34 -48 64 -48 43 0 66
22 66 62 0 32 -31 93 -58 116 -23 18 -66 15 -85 -6z"/>
<path d="M980 1638 c-28 -31 -29 -129 0 -158 29 -29 74 -26 100 8 18 22 21 37
18 79 -3 32 -12 61 -23 73 -24 26 -69 26 -95 -2z"/>
<path d="M442 857 c3 -220 3 -223 31 -279 30 -62 85 -113 145 -134 28 -10 134
-13 445 -14 394 0 408 1 427 20 11 11 20 33 20 50 0 17 -9 39 -20 50 -19 19
-33 20 -417 20 -428 0 -428 0 -467 53 -19 26 -21 46 -26 213 l-5 185 -68 29
-68 29 3 -222z"/>
<path d="M4210 1019 c-120 -20 -252 -109 -320 -216 -62 -98 -86 -245 -59 -362
47 -205 245 -361 459 -361 129 1 228 40 324 130 108 102 151 210 144 369 -3
86 -7 105 -40 174 -68 142 -201 242 -358 267 -73 11 -74 11 -150 -1z m174
-313 c123 -72 112 -258 -18 -317 -50 -23 -95 -24 -143 -4 -50 21 -72 42 -94
90 -42 91 -13 181 76 236 44 28 127 25 179 -5z"/>
<path d="M2071 949 c-246 -43 -425 -295 -383 -541 48 -277 317 -453 587 -383
231 61 386 296 347 528 -45 264 -291 441 -551 396z m166 -306 c43 -20 88 -80
97 -128 17 -91 -57 -197 -148 -210 -66 -10 -116 7 -159 55 -111 122 -36 300
126 300 27 0 65 -8 84 -17z"/>
</g>
</svg>
