<svg width="57" height="56" viewBox="0 0 57 56" fill="none" xmlns="http://www.w3.org/2000/svg">
<g clip-path="url(#clip0_1_781)">
<path d="M6.91443 47.7971C6.91427 48.0126 6.9566 48.226 7.03901 48.4252C7.12141 48.6243 7.24227 48.8052 7.39467 48.9576C7.54706 49.11 7.72801 49.2309 7.92716 49.3133C8.1263 49.3957 8.33974 49.438 8.55526 49.4379H10.1961V51.0787C10.1977 52.3838 10.7168 53.6349 11.6396 54.5577C12.5624 55.4805 13.8136 55.9997 15.1186 56.0012H18.4003C19.7051 55.9993 20.9559 55.48 21.8785 54.5573C22.801 53.6345 23.32 52.3836 23.3216 51.0787V49.4379H33.1654V51.0787C33.167 52.3838 33.6861 53.6349 34.6089 54.5577C35.5317 55.4805 36.7829 55.9997 38.0879 56.0012H41.3696C42.6746 55.9997 43.9258 55.4805 44.8486 54.5577C45.7714 53.6349 46.2905 52.3838 46.2921 51.0787V49.4379H47.9293C48.1448 49.438 48.3583 49.3957 48.5574 49.3133C48.7566 49.2309 48.9375 49.11 49.0899 48.9576C49.2423 48.8052 49.3632 48.6243 49.4456 48.4252C49.528 48.226 49.5703 48.0126 49.5702 47.7971V42.7664H6.91443V47.7971Z" fill="#7F6BF6"/>
<path d="M49.5689 1.64084C49.5691 1.42531 49.5267 1.21188 49.4443 1.01273C49.3619 0.813582 49.2411 0.632635 49.0887 0.480238C48.9363 0.327841 48.7553 0.206983 48.5562 0.12458C48.357 0.042176 48.1436 -0.000157624 47.9281 4.41008e-07H8.55283C8.3373 -0.000157624 8.12386 0.042176 7.92471 0.12458C7.72557 0.206983 7.54462 0.327841 7.39222 0.480238C7.23983 0.632635 7.11897 0.813582 7.03657 1.01273C6.95416 1.21188 6.91183 1.42531 6.91199 1.64084V3.28167H49.5689V1.64084Z" fill="#7F6BF6"/>
<path d="M13.4753 29.6409H26.6008V39.4847H13.4753V29.6409Z" fill="#ABFFC7"/>
<path d="M21.6783 16.5154H34.8038V26.3592H21.6783V16.5154Z" fill="#ABFFC7"/>
<path d="M13.4753 26.3592H18.3967V14.8745C18.3965 14.659 18.4388 14.4455 18.5212 14.2464C18.6036 14.0472 18.7245 13.8663 18.8769 13.7139C19.0293 13.5615 19.2102 13.4406 19.4094 13.3582C19.6085 13.2758 19.822 13.2335 20.0375 13.2337H36.4434C36.659 13.2335 36.8724 13.2758 37.0716 13.3582C37.2707 13.4406 37.4516 13.5615 37.604 13.7139C37.7564 13.8663 37.8773 14.0472 37.9597 14.2464C38.0421 14.4455 38.0844 14.659 38.0843 14.8745V26.3592H43.0068V6.56213H13.4753V26.3592Z" fill="#7F6BF6"/>
<path d="M1.88132 39.4846H10.1937V6.56213H1.88132C1.66579 6.56198 1.45235 6.60431 1.25321 6.68671C1.05406 6.76912 0.873114 6.88997 0.720716 7.04237C0.568319 7.19477 0.447462 7.37571 0.365058 7.57486C0.282654 7.77401 0.240321 7.98745 0.240479 8.20297V37.8438C0.240321 38.0593 0.282654 38.2728 0.365058 38.4719C0.447462 38.6711 0.568319 38.852 0.720716 39.0044C0.873114 39.1568 1.05406 39.2777 1.25321 39.3601C1.45235 39.4425 1.66579 39.4848 1.88132 39.4846Z" fill="#7F6BF6"/>
<path d="M29.8813 29.6409H43.0068V39.4847H29.8813V29.6409Z" fill="#ABFFC7"/>
<path d="M54.5996 6.56213H46.2872V39.4846H54.5996C54.8151 39.4848 55.0286 39.4425 55.2277 39.3601C55.4269 39.2777 55.6078 39.1568 55.7602 39.0044C55.9126 38.852 56.0335 38.6711 56.1159 38.4719C56.1983 38.2728 56.2406 38.0593 56.2404 37.8438V8.20297C56.2406 7.98745 56.1983 7.77401 56.1159 7.57486C56.0335 7.37571 55.9126 7.19477 55.7602 7.04237C55.6078 6.88997 55.4269 6.76912 55.2277 6.68671C55.0286 6.60431 54.8151 6.56198 54.5996 6.56213Z" fill="#7F6BF6"/>
</g>
<defs>
<clipPath id="clip0_1_781">
<rect width="56" height="56" fill="white" transform="translate(0.240479)"/>
</clipPath>
</defs>
</svg>
