<svg width="56" height="57" viewBox="0 0 56 57" fill="none" xmlns="http://www.w3.org/2000/svg">
<g clip-path="url(#clip0_1_655)">
<mask id="mask0_1_655" style="mask-type:luminance" maskUnits="userSpaceOnUse" x="1" y="0" width="55" height="57">
<path d="M55.6966 0.390625H1.16663V56.3906H55.6966V0.390625Z" fill="white"/>
</mask>
<g mask="url(#mask0_1_655)">
<path d="M53.3948 0.391735H3.46729C2.85782 0.396629 2.27478 0.64123 1.84424 1.07264C1.4137 1.50405 1.17029 2.08759 1.16663 2.69707L1.16663 41.8971C1.17029 42.5065 1.4137 43.0901 1.84424 43.5215C2.27478 43.9529 2.85782 44.1975 3.46729 44.2024H53.3948C54.0045 44.1984 54.5881 43.9541 55.0188 43.5225C55.4496 43.0909 55.6927 42.5068 55.6955 41.8971V2.69707C55.7016 2.39303 55.6464 2.09087 55.533 1.80869C55.4196 1.52651 55.2505 1.27012 55.0356 1.05487C54.8208 0.839616 54.5648 0.669936 54.2828 0.55599C54.0009 0.442045 53.6988 0.386177 53.3948 0.391735ZM15.54 3.04357C15.8503 2.73625 16.2699 2.56463 16.7066 2.5664C16.9239 2.56391 17.1394 2.60478 17.3407 2.68663C17.5419 2.76848 17.7248 2.88965 17.8787 3.04305C18.0325 3.19646 18.1542 3.37901 18.2366 3.58003C18.319 3.78105 18.3605 3.99649 18.3586 4.21373C18.3571 4.65223 18.1861 5.07316 17.8815 5.38857C17.7337 5.55374 17.5526 5.68564 17.3501 5.77554C17.1475 5.86545 16.9282 5.9113 16.7066 5.91007C16.4894 5.91194 16.2739 5.87046 16.0729 5.78805C15.8719 5.70563 15.6893 5.58394 15.5359 5.4301C15.3825 5.27626 15.2614 5.09336 15.1795 4.89211C15.0977 4.69086 15.0568 4.47531 15.0593 4.25807C15.065 3.80896 15.2347 3.37743 15.5365 3.04473M10.0193 3.04473C10.3342 2.73551 10.7587 2.56353 11.2 2.5664C11.4166 2.56485 11.6314 2.60641 11.8319 2.68867C12.0323 2.77094 12.2144 2.89226 12.3674 3.04557C12.5205 3.19888 12.6416 3.38112 12.7236 3.58167C12.8056 3.78222 12.8468 3.99708 12.845 4.21373C12.8474 4.43078 12.8066 4.64614 12.7249 4.84723C12.6432 5.04833 12.5223 5.23112 12.3691 5.38493C12.216 5.53874 12.0337 5.66048 11.8329 5.74303C11.6322 5.82559 11.417 5.8673 11.2 5.86573C10.7614 5.86441 10.3404 5.69341 10.0251 5.38857C9.72049 5.07316 9.54953 4.65223 9.54796 4.21373C9.56528 3.78092 9.73418 3.36797 10.0251 3.04707M6.85413 5.38857C6.54089 5.69477 6.12025 5.86621 5.68221 5.86621C5.24417 5.86621 4.82353 5.69477 4.51029 5.38857C4.20566 5.07316 4.03469 4.65223 4.03313 4.21373C4.05044 3.78092 4.21934 3.36797 4.51029 3.04707C4.82353 2.74087 5.24417 2.56943 5.68221 2.56943C6.12025 2.56943 6.54089 2.74087 6.85413 3.04707C7.15899 3.35901 7.33017 3.77756 7.33129 4.21373C7.32972 4.65223 7.15876 5.07316 6.85413 5.38857Z" fill="#ABFFC7"/>
<path fill-rule="evenodd" clip-rule="evenodd" d="M29.3417 48.3757H28.0187C27.8778 48.3776 27.7411 48.4236 27.6279 48.5073C27.5146 48.5911 27.4305 48.7083 27.3875 48.8424C27.3564 48.9416 27.3491 49.0467 27.3661 49.1493C27.3831 49.2518 27.424 49.349 27.4854 49.4329C27.5468 49.5167 27.627 49.585 27.7197 49.6322C27.8123 49.6794 27.9147 49.7042 28.0187 49.7046H29.3417C29.5173 49.7046 29.6857 49.6348 29.8098 49.5106C29.934 49.3865 30.0037 49.2181 30.0037 49.0425C30.0037 48.8669 29.934 48.6985 29.8098 48.5743C29.6857 48.4502 29.5173 48.3804 29.3417 48.3804" fill="#7F6BF6"/>
<path fill-rule="evenodd" clip-rule="evenodd" d="M24.6971 48.7758C24.6633 48.6538 24.5953 48.5439 24.501 48.4594C24.4067 48.3748 24.2901 48.319 24.1651 48.2987C23.7752 48.2328 23.3929 48.1276 23.0241 47.9848C22.9229 47.947 22.8139 47.9345 22.7068 47.9484C22.5996 47.9622 22.4974 48.002 22.4091 48.0643C22.3208 48.1266 22.2491 48.2096 22.2001 48.3059C22.1511 48.4023 22.1264 48.5091 22.1281 48.6172C22.1296 48.7488 22.1708 48.877 22.2464 48.9848C22.322 49.0927 22.4284 49.1752 22.5516 49.2215C23.0046 49.3952 23.4735 49.5242 23.9516 49.6065C24.0609 49.6233 24.1726 49.6126 24.2767 49.5754C24.3808 49.5381 24.4739 49.4754 24.5476 49.393C24.6213 49.3106 24.6733 49.2111 24.6988 49.1035C24.7243 48.9959 24.7225 48.8837 24.6936 48.777" fill="#7F6BF6"/>
<path fill-rule="evenodd" clip-rule="evenodd" d="M19.5312 39.3493C19.4512 39.2871 19.3579 39.2441 19.2587 39.2236C19.1594 39.2031 19.0568 39.2057 18.9587 39.2312C18.8607 39.2567 18.7697 39.3044 18.693 39.3706C18.6163 39.4367 18.5558 39.5197 18.5162 39.613C18.3268 40.0601 18.1834 40.5252 18.088 41.0013C18.067 41.0874 18.0637 41.1769 18.0782 41.2644C18.0927 41.3518 18.1247 41.4354 18.1723 41.5102C18.2199 41.585 18.2821 41.6494 18.3552 41.6995C18.4283 41.7496 18.5108 41.7845 18.5977 41.8019C18.6846 41.8194 18.7742 41.8191 18.861 41.8011C18.9478 41.7831 19.03 41.7478 19.1028 41.6972C19.1756 41.6466 19.2375 41.5818 19.2846 41.5067C19.3317 41.4317 19.3632 41.3478 19.3772 41.2603C19.4556 40.8715 19.5753 40.4921 19.7342 40.1286C19.7894 39.9943 19.7995 39.8456 19.7629 39.705C19.7263 39.5645 19.6449 39.4396 19.5312 39.3493Z" fill="#5B3DEB"/>
<path fill-rule="evenodd" clip-rule="evenodd" d="M23.3076 35.8527C23.2184 35.762 23.1048 35.6992 22.9805 35.6718C22.8562 35.6445 22.7267 35.6538 22.6076 35.6987C22.1562 35.873 21.7225 36.0902 21.3126 36.3474C21.2369 36.3927 21.171 36.4527 21.1189 36.5238C21.0667 36.595 21.0294 36.6759 21.009 36.7618C20.9887 36.8476 20.9857 36.9367 21.0004 37.0237C21.015 37.1107 21.0469 37.1939 21.0943 37.2683C21.1416 37.3428 21.2034 37.407 21.2759 37.4572C21.3485 37.5074 21.4304 37.5425 21.5167 37.5605C21.6031 37.5786 21.6922 37.5791 21.7788 37.5621C21.8654 37.5451 21.9477 37.5109 22.0208 37.4616C22.3555 37.2511 22.7104 37.0744 23.0801 36.9342C23.1832 36.8955 23.2748 36.8315 23.3468 36.7481C23.4187 36.6648 23.4685 36.5647 23.4917 36.4571C23.5149 36.3495 23.5108 36.2378 23.4796 36.1322C23.4485 36.0266 23.3914 35.9305 23.3135 35.8527" fill="#5B3DEB"/>
<path fill-rule="evenodd" clip-rule="evenodd" d="M28.0793 35.2437H26.7563C26.5807 35.2437 26.4123 35.3134 26.2882 35.4376C26.164 35.5617 26.0942 35.7301 26.0942 35.9057C26.0942 36.0813 26.164 36.2497 26.2882 36.3739C26.4123 36.4981 26.5807 36.5678 26.7563 36.5678H28.0805C28.2561 36.5678 28.4245 36.4981 28.5487 36.3739C28.6728 36.2497 28.7426 36.0813 28.7426 35.9057C28.7426 35.7301 28.6728 35.5617 28.5487 35.4376C28.4245 35.3134 28.2561 35.2437 28.0805 35.2437" fill="#5B3DEB"/>
<path fill-rule="evenodd" clip-rule="evenodd" d="M33.3608 35.2437H32.0378C31.8622 35.2437 31.6938 35.3134 31.5697 35.4376C31.4455 35.5617 31.3757 35.7301 31.3757 35.9057C31.3757 36.0813 31.4455 36.2497 31.5697 36.3739C31.6938 36.4981 31.8622 36.5678 32.0378 36.5678H33.362C33.5376 36.5678 33.706 36.4981 33.8301 36.3739C33.9543 36.2497 34.0241 36.0813 34.0241 35.9057C34.0241 35.7301 33.9543 35.5617 33.8301 35.4376C33.706 35.3134 33.5364 35.2437 33.3608 35.2437Z" fill="#5B3DEB"/>
<path fill-rule="evenodd" clip-rule="evenodd" d="M39.0098 34.9007C38.9172 34.8196 38.8036 34.7663 38.682 34.7469C38.5605 34.7276 38.4359 34.7428 38.3227 34.791C37.9569 34.9463 37.5761 35.0636 37.1863 35.141C37.098 35.154 37.0133 35.1848 36.9373 35.2315C36.8612 35.2782 36.7954 35.3399 36.7438 35.4127C36.6922 35.4856 36.656 35.5681 36.6372 35.6554C36.6184 35.7426 36.6175 35.8328 36.6346 35.9204C36.6516 36.008 36.6863 36.0912 36.7364 36.1651C36.7865 36.2389 36.8511 36.3019 36.9262 36.3501C37.0013 36.3983 37.0855 36.4307 37.1735 36.4455C37.2615 36.4603 37.3516 36.457 37.4383 36.436C37.9146 36.3431 38.3802 36.202 38.8278 36.0148C38.9315 35.9714 39.0225 35.9023 39.0921 35.814C39.1618 35.7257 39.2078 35.6212 39.2259 35.5102C39.244 35.3993 39.2335 35.2855 39.1955 35.1797C39.1575 35.0739 39.0932 34.9795 39.0087 34.9053" fill="#5B3DEB"/>
<path fill-rule="evenodd" clip-rule="evenodd" d="M42.0782 31.053C41.9599 31.0678 41.848 31.1145 41.7543 31.1881C41.6606 31.2617 41.5886 31.3594 41.5462 31.4707C41.4013 31.8399 41.2212 32.1942 41.0083 32.5289C40.954 32.6137 40.9198 32.7099 40.9083 32.81C40.8969 32.9101 40.9085 33.0115 40.9423 33.1064C40.9761 33.2013 41.0311 33.2873 41.1032 33.3576C41.1753 33.428 41.2626 33.4809 41.3583 33.5124C41.498 33.5585 41.6489 33.5572 41.7878 33.5086C41.9266 33.4601 42.0455 33.3671 42.126 33.244C42.385 32.8336 42.6038 32.3992 42.7793 31.9467C42.821 31.8399 42.8341 31.7241 42.8175 31.6107C42.8008 31.4973 42.7549 31.3901 42.6842 31.2999C42.6136 31.2096 42.5207 31.1392 42.4146 31.0957C42.3086 31.0523 42.193 31.0371 42.0793 31.0519" fill="#5B3DEB"/>
<path fill-rule="evenodd" clip-rule="evenodd" d="M43.0663 27.6616C42.9517 27.19 42.792 26.7306 42.5892 26.2896C42.5157 26.1301 42.3818 26.0063 42.2171 25.9455C42.0523 25.8847 41.8702 25.8918 41.7107 25.9653C41.5511 26.0388 41.4274 26.1726 41.3665 26.3374C41.3057 26.5021 41.3128 26.6843 41.3863 26.8438C41.5556 27.2022 41.6863 27.5777 41.776 27.9638C41.8177 28.1331 41.9246 28.2792 42.0733 28.3702C42.222 28.4613 42.4007 28.4901 42.5705 28.4503C42.7403 28.4106 42.8876 28.3055 42.9804 28.1578C43.0732 28.0102 43.1041 27.8319 43.0663 27.6616Z" fill="#5B3DEB"/>
<path fill-rule="evenodd" clip-rule="evenodd" d="M39.7086 23.1044C39.2901 22.8596 38.849 22.6557 38.3914 22.4954C38.3082 22.462 38.2191 22.4459 38.1294 22.4479C38.0397 22.45 37.9514 22.4702 37.8698 22.5074C37.7882 22.5446 37.715 22.598 37.6546 22.6643C37.5942 22.7306 37.548 22.8085 37.5186 22.8932C37.4892 22.9779 37.4773 23.0677 37.4836 23.1572C37.4899 23.2466 37.5143 23.3339 37.5554 23.4136C37.5964 23.4934 37.6532 23.5639 37.7223 23.6211C37.7914 23.6782 37.8714 23.7208 37.9574 23.7461C38.3323 23.8739 38.6931 24.0396 39.0343 24.2408C39.1849 24.3303 39.365 24.3564 39.5349 24.3132C39.7048 24.27 39.8506 24.161 39.9402 24.0104C40.0297 23.8597 40.0558 23.6796 40.0126 23.5097C39.9694 23.3398 39.8593 23.194 39.7086 23.1044Z" fill="#5B3DEB"/>
<path fill-rule="evenodd" clip-rule="evenodd" d="M34.2497 22.1106H32.9267C32.7511 22.1106 32.5827 22.1804 32.4586 22.3045C32.3344 22.4287 32.2646 22.5971 32.2646 22.7727C32.2646 22.9483 32.3344 23.1167 32.4586 23.2408C32.5827 23.365 32.7511 23.4348 32.9267 23.4348H34.2509C34.4265 23.4348 34.5949 23.365 34.7191 23.2408C34.8432 23.1167 34.913 22.9483 34.913 22.7727C34.913 22.5971 34.8432 22.4287 34.7191 22.3045C34.5949 22.1804 34.4253 22.1106 34.2497 22.1106Z" fill="#5B3DEB"/>
<path fill-rule="evenodd" clip-rule="evenodd" d="M40.8613 37.6541C40.0707 37.6536 39.2878 37.8089 38.5572 38.111C37.8267 38.4131 37.1628 38.8561 36.6035 39.4148C36.0441 39.9735 35.6003 40.6369 35.2974 41.3671C34.9944 42.0973 34.8382 42.88 34.8378 43.6706C34.8393 43.8487 34.8541 44.0266 34.8821 44.2026H37.7533C37.7199 44.0252 37.7031 43.8452 37.7031 43.6647C37.7031 42.8274 38.0357 42.0244 38.6278 41.4324C39.2198 40.8403 40.0228 40.5077 40.8601 40.5077C41.6974 40.5077 42.5004 40.8403 43.0924 41.4324C43.6845 42.0244 44.0171 42.8274 44.0171 43.6647C44.0171 43.8452 44.0004 44.0252 43.9669 44.2026H46.8381C46.8611 44.0261 46.874 43.8485 46.8766 43.6706C46.8768 42.8804 46.7212 42.098 46.4189 41.368C46.1166 40.6379 45.6735 39.9746 45.1147 39.4159C44.556 38.8572 43.8927 38.414 43.1627 38.1117C42.4327 37.8094 41.6514 37.6539 40.8613 37.6541Z" fill="#5B3DEB"/>
<path fill-rule="evenodd" clip-rule="evenodd" d="M25.3225 19.9848L17.8348 15.6681C17.7186 15.5981 17.5855 15.561 17.4498 15.561C17.3141 15.561 17.181 15.5981 17.0648 15.6681L14.518 17.1393L22.7745 21.9051V25.4355C22.7765 25.5036 22.7596 25.571 22.7256 25.6301C22.6916 25.6892 22.6419 25.7378 22.582 25.7703L20.6721 26.8681C20.6425 26.8839 20.6094 26.8921 20.5759 26.8921C20.5423 26.8921 20.5093 26.8839 20.4796 26.8681C20.4492 26.8514 20.4239 26.8267 20.4064 26.7967C20.389 26.7667 20.38 26.7325 20.3805 26.6978V23.2806L12.1251 18.5148L9.57714 19.9848C9.45835 20.0511 9.3598 20.1484 9.29199 20.2664C9.22418 20.3843 9.18967 20.5185 9.19214 20.6545V29.3006C9.19027 29.4359 9.22508 29.5692 9.29286 29.6863C9.36065 29.8034 9.45889 29.8999 9.57714 29.9656L17.0648 34.2823C17.181 34.3524 17.3141 34.3894 17.4498 34.3894C17.5855 34.3894 17.7186 34.3524 17.8348 34.2823L25.3225 29.9656C25.4407 29.8999 25.539 29.8034 25.6067 29.6863C25.6745 29.5692 25.7093 29.4359 25.7075 29.3006V20.651C25.7099 20.515 25.6754 20.3808 25.6076 20.2629C25.5398 20.1449 25.4413 20.0476 25.3225 19.9813" fill="#5B3DEB"/>
<path fill-rule="evenodd" clip-rule="evenodd" d="M28.9637 22.1106H27.6395C27.4639 22.1106 27.2955 22.1804 27.1713 22.3045C27.0472 22.4287 26.9774 22.5971 26.9774 22.7727C26.9774 22.9483 27.0472 23.1167 27.1713 23.2409C27.2955 23.365 27.4639 23.4348 27.6395 23.4348H28.9637C29.1046 23.4327 29.2413 23.3866 29.3547 23.3029C29.4681 23.2192 29.5524 23.1021 29.596 22.9681C29.6274 22.8688 29.6349 22.7635 29.6179 22.6608C29.601 22.558 29.56 22.4607 29.4984 22.3767C29.4368 22.2927 29.3563 22.2245 29.2634 22.1774C29.1705 22.1304 29.0678 22.1059 28.9637 22.106" fill="#5B3DEB"/>
<path fill-rule="evenodd" clip-rule="evenodd" d="M48.4691 53.9919C48.4691 55.3161 45.0648 56.3906 40.8601 56.3906C36.6554 56.3906 33.2511 55.3149 33.2511 53.9919C33.2511 53.0481 34.9696 52.2349 37.4779 51.8406C37.8279 52.3236 38.1861 52.7844 38.5163 53.2172C37.8466 53.3934 37.4184 53.6466 37.4184 53.9172C37.4184 54.4492 38.9608 54.8832 40.8601 54.8832C42.7594 54.8832 44.2971 54.4504 44.2971 53.9172C44.2971 53.6431 43.8736 53.3899 43.2039 53.2172C43.5388 52.7891 43.8911 52.3224 44.2469 51.8406C46.7506 52.2349 48.4691 53.0481 48.4691 53.9919Z" fill="#7F6BF6"/>
<path fill-rule="evenodd" clip-rule="evenodd" d="M20.279 45.8055C20.378 45.9504 20.4154 46.1288 20.3829 46.3013C20.3504 46.4738 20.2507 46.6264 20.1057 46.7254C19.9608 46.8244 19.7824 46.8618 19.6099 46.8293C19.4374 46.7968 19.2848 46.6971 19.1858 46.5521C18.9122 46.1509 18.6785 45.7238 18.4882 45.277C18.4483 45.1819 18.4311 45.0788 18.438 44.9759C18.4449 44.8731 18.4756 44.7732 18.5278 44.6843C18.5892 44.5783 18.679 44.4917 18.787 44.434C18.895 44.3764 19.017 44.3501 19.1391 44.3581C19.2613 44.3661 19.3788 44.4081 19.4784 44.4793C19.578 44.5506 19.6556 44.6482 19.7027 44.7613C19.86 45.1259 20.051 45.4751 20.2732 45.8043" fill="#7F6BF6"/>
<path fill-rule="evenodd" clip-rule="evenodd" d="M40.712 53.8603C38.962 51.681 35.3208 47.0528 34.8787 44.2026H46.837C46.3972 47.1123 42.6802 51.7731 41.0037 53.8603C40.9883 53.8836 40.9671 53.9025 40.9421 53.915C40.9171 53.9275 40.8892 53.9332 40.8613 53.9315C40.8327 53.9325 40.8043 53.9266 40.7784 53.9142C40.7526 53.9018 40.7302 53.8833 40.7132 53.8603" fill="#7F6BF6"/>
<path fill-rule="evenodd" clip-rule="evenodd" d="M33.2989 49.6987C33.1233 49.6987 32.9549 49.6289 32.8308 49.5048C32.7066 49.3806 32.6368 49.2122 32.6368 49.0366C32.6368 48.861 32.7066 48.6926 32.8308 48.5684C32.9549 48.4443 33.1233 48.3745 33.2989 48.3745H34.6231C34.7987 48.3745 34.9671 48.4443 35.0913 48.5684C35.2154 48.6926 35.2852 48.861 35.2852 49.0366C35.2852 49.2122 35.2154 49.3806 35.0913 49.5048C34.9671 49.6289 34.7987 49.6987 34.6231 49.6987H33.2989Z" fill="#7F6BF6"/>
<path fill-rule="evenodd" clip-rule="evenodd" d="M44.205 43.8467C44.2052 44.5089 44.009 45.1562 43.6413 45.7069C43.2735 46.2575 42.7507 46.6867 42.139 46.9402C41.5272 47.1936 40.8541 47.2599 40.2046 47.1307C39.5552 47.0015 38.9587 46.6826 38.4906 46.2143C38.0224 45.746 37.7037 45.1494 37.5747 44.4999C37.4458 43.8504 37.5123 43.1773 37.766 42.5656C38.0196 41.954 38.449 41.4313 38.9998 41.0638C39.5505 40.6962 40.198 40.5003 40.8601 40.5007C41.7475 40.5007 42.5986 40.8533 43.2261 41.4808C43.8536 42.1082 44.2061 42.9593 44.2061 43.8467" fill="white"/>
</g>
</g>
<defs>
<clipPath id="clip0_1_655">
<rect width="56" height="56" fill="white" transform="translate(0 0.390625)"/>
</clipPath>
</defs>
</svg>
