<svg width="46" height="56" viewBox="0 0 46 56" fill="none" xmlns="http://www.w3.org/2000/svg">
<g clip-path="url(#clip0_1_769)">
<path d="M14.9958 49.9803H3.11026C2.30746 49.9803 1.53755 50.2977 0.969885 50.8626C0.402224 51.4274 0.083313 52.1936 0.083313 52.9924C0.083313 53.7913 0.402224 54.5574 0.969885 55.1223C1.53755 55.6872 2.30746 56.0045 3.11026 56.0045H20.3379C18.1192 54.4277 16.292 52.3672 14.9958 49.9803Z" fill="#7F6BF6"/>
<path d="M3.11025 46.7005H13.6263C13.1268 45.0503 12.8739 43.3359 12.8758 41.6124C12.8758 41.2989 12.8847 40.9866 12.9001 40.6775H3.11025C2.3076 40.6775 1.53783 40.9948 0.970274 41.5595C0.402716 42.1243 0.0838623 42.8903 0.0838623 43.689C0.0838623 44.4877 0.402716 45.2537 0.970274 45.8185C1.53783 46.3833 2.3076 46.7005 3.11025 46.7005Z" fill="#7F6BF6"/>
<path d="M3.11026 37.3964H13.3898C13.9249 35.2312 14.8687 33.1869 16.1708 31.3723H3.11026C2.30746 31.3723 1.53755 31.6897 0.969885 32.2545C0.402224 32.8194 0.083313 33.5855 0.083313 34.3844C0.083313 35.1832 0.402224 35.9494 0.969885 36.5142C1.53755 37.0791 2.30746 37.3964 3.11026 37.3964Z" fill="#7F6BF6"/>
<path d="M3.11025 28.0903H19.2105C21.9247 25.8093 25.2665 24.3946 28.8003 24.0306C28.5846 23.4547 28.1973 22.9581 27.6902 22.6073C27.1832 22.2564 26.5805 22.068 25.9629 22.0673H3.11025C2.3076 22.0673 1.53783 22.3845 0.970274 22.9493C0.402716 23.5141 0.0838623 24.2801 0.0838623 25.0788C0.0838623 25.8775 0.402716 26.6435 0.970274 27.2082C1.53783 27.773 2.3076 28.0903 3.11025 28.0903Z" fill="#7F6BF6"/>
<path d="M20.4838 31.3723C18.7883 33.0376 17.5323 35.094 16.8278 37.3586C16.1232 39.6232 15.9917 42.0259 16.445 44.3533C16.8984 46.6806 17.9225 48.8605 19.4264 50.6991C20.9303 52.5377 22.8673 53.9782 25.0654 54.8925C27.2634 55.8068 29.6544 56.1666 32.0259 55.9399C34.3973 55.7132 36.6758 54.907 38.6587 53.593C40.6417 52.279 42.2677 50.498 43.3923 48.408C44.5169 46.3181 45.1052 43.9841 45.105 41.6135C45.105 29.0307 29.7277 22.2883 20.4838 31.3723ZM35.8578 45.4983C35.6907 46.4588 35.2671 47.357 34.6314 48.0987C33.9957 48.8404 33.1713 49.3984 32.2445 49.7142V50.1542C32.2445 50.5894 32.0708 51.0068 31.7615 51.3145C31.4522 51.6223 31.0328 51.7952 30.5954 51.7952C30.158 51.7952 29.7385 51.6223 29.4292 51.3145C29.12 51.0068 28.9462 50.5894 28.9462 50.1542V49.9078C27.9166 49.7581 26.9378 49.3659 26.0912 48.7639C25.9184 48.6529 25.7684 48.5103 25.649 48.3437C25.4338 48.0417 25.3275 47.6762 25.3474 47.3065C25.3672 46.9368 25.512 46.5846 25.7582 46.3071C26.0045 46.0295 26.3378 45.843 26.704 45.7776C27.0702 45.7123 27.4479 45.772 27.7757 45.947C28.1622 46.2503 28.6059 46.4734 29.0805 46.6032C29.5551 46.733 30.051 46.7668 30.539 46.7027C30.9434 46.7051 31.3397 46.5905 31.6797 46.3727C32.7486 45.6787 33.215 43.7704 31.4785 43.1588C30.0792 42.6683 27.6607 41.7664 26.7013 40.6368C26.2558 40.0558 25.9569 39.3768 25.8299 38.657C25.7028 37.9373 25.7513 37.1976 25.9711 36.5003C26.191 35.8031 26.5758 35.1685 27.0934 34.6499C27.6109 34.1314 28.2459 33.744 28.9451 33.5204C28.884 33.1665 28.9279 32.8025 29.0714 32.4729C29.2149 32.1434 29.4518 31.8626 29.7531 31.6649C30.6827 31.115 32.2434 31.4779 32.2434 33.4412C32.7265 33.5837 33.1974 33.7643 33.6516 33.9813C33.8654 34.0612 34.0604 34.1842 34.2242 34.3425C34.388 34.5009 34.5171 34.6912 34.6036 34.9016C34.69 35.1119 34.7318 35.3378 34.7264 35.565C34.7209 35.7922 34.6684 36.0159 34.5721 36.2219C34.4757 36.428 34.3376 36.612 34.1664 36.7625C33.9952 36.9129 33.7947 37.0265 33.5773 37.0962C33.3599 37.1659 33.1304 37.1902 32.9031 37.1674C32.6759 37.1447 32.4558 37.0755 32.2567 36.9642C31.9113 36.7493 31.5236 36.6105 31.1198 36.5572C30.716 36.5039 30.3054 36.5373 29.9156 36.6551C29.7357 36.7189 29.5721 36.8214 29.4365 36.9553C29.3009 37.0892 29.1967 37.2512 29.1313 37.4298C29.0658 37.6083 29.0408 37.7991 29.0579 37.9884C29.075 38.1777 29.1339 38.3609 29.2303 38.525C30.2712 39.1866 31.3974 39.7046 32.5783 40.0648C33.6947 40.4199 34.6431 41.1671 35.2466 42.1669C35.85 43.1667 36.0673 44.3508 35.8578 45.4983Z" fill="#7F6BF6"/>
<path d="M13.4208 18.1923C13.5435 18.3749 13.7096 18.5246 13.9043 18.6281C14.099 18.7317 14.3164 18.7858 14.5372 18.7858C14.7579 18.7858 14.9753 18.7317 15.17 18.6281C15.3647 18.5246 15.5308 18.3749 15.6535 18.1923L22.354 9.69888C22.4894 9.49767 22.5673 9.26363 22.5794 9.02178C22.5915 8.77993 22.5374 8.53935 22.4227 8.32576C22.3081 8.11216 22.1373 7.93358 21.9285 7.80909C21.7198 7.68461 21.481 7.6189 21.2377 7.61898H19.1917C18.8359 7.61869 18.4948 7.47791 18.2432 7.22756C17.9916 6.97722 17.8501 6.63775 17.8498 6.28371V1.33417C17.8492 0.979936 17.7073 0.640423 17.4553 0.390248C17.2033 0.140074 16.8617 -0.000291579 16.5058 4.54776e-07H12.5675C12.2115 0.000292009 11.8702 0.141217 11.6186 0.391804C11.3669 0.642391 11.2256 0.982136 11.2256 1.33637V6.28591C11.2256 6.64033 11.0841 6.98025 10.8323 7.23086C10.5804 7.48148 10.2388 7.62228 9.88263 7.62228H7.83556C7.5923 7.62239 7.35365 7.68825 7.14508 7.81282C6.93651 7.93739 6.76586 8.11598 6.65135 8.32954C6.53683 8.5431 6.48276 8.7836 6.4949 9.02536C6.50704 9.26711 6.58495 9.50105 6.72029 9.70218L13.4208 18.1923Z" fill="#ABFFC7"/>
</g>
<defs>
<clipPath id="clip0_1_769">
<rect width="45.02" height="56.01" fill="white" transform="translate(0.0838623)"/>
</clipPath>
</defs>
</svg>
