<svg width="56" height="57" viewBox="0 0 56 57" fill="none" xmlns="http://www.w3.org/2000/svg">
<g clip-path="url(#clip0_1_706)">
<path d="M53.634 47.9568H45.9865C45.7581 47.9566 45.5343 48.021 45.341 48.1425C45.1476 48.264 44.9924 48.4377 44.8934 48.6435C44.7944 48.8493 44.7556 49.0789 44.7814 49.3058C44.8072 49.5327 44.8965 49.7478 45.0392 49.9261L49.1155 55.0303C49.229 55.1726 49.3731 55.2875 49.5371 55.3664C49.7011 55.4454 49.8808 55.4864 50.0628 55.4865H53.4893C53.6638 55.4866 53.8363 55.449 53.9949 55.3763C54.1535 55.3036 54.2946 55.1974 54.4084 55.0651C54.5222 54.9329 54.606 54.7775 54.6542 54.6098C54.7024 54.4421 54.7137 54.266 54.6875 54.0935M52.381 39.1601H36.4653L37.2237 40.1168L37.6962 40.7106L41.1028 44.9806C41.2164 45.1229 41.3605 45.2378 41.5245 45.3168C41.6885 45.3957 41.8682 45.4368 42.0502 45.4368H51.975C52.1493 45.4367 52.3216 45.399 52.48 45.3263C52.6384 45.2536 52.7793 45.1476 52.8931 45.0154C53.0068 44.8833 53.0907 44.7283 53.139 44.5608C53.1874 44.3933 53.199 44.2173 53.1732 44.045M5.24185 34.8166L2.34735 54.0946C2.32131 54.267 2.33282 54.4431 2.38108 54.6106C2.42934 54.7782 2.51323 54.9334 2.627 55.0655C2.74076 55.1977 2.88173 55.3037 3.04026 55.3764C3.19879 55.449 3.37113 55.4866 3.54551 55.4865H21.7828C22.0109 55.4865 22.2344 55.4221 22.4275 55.3008C22.6207 55.1795 22.7757 55.0062 22.8747 54.8008C22.9738 54.5954 23.0129 54.3661 22.9875 54.1395C22.9622 53.9128 22.8734 53.6979 22.7313 53.5195L7.38852 34.2426C7.24147 34.0581 7.04376 33.9205 6.81964 33.8467C6.59552 33.7729 6.35474 33.7661 6.12682 33.8272C5.8989 33.8883 5.69377 34.0145 5.53657 34.1905C5.37937 34.3664 5.27694 34.5833 5.24185 34.8166Z" fill="#ABFFC7"/>
<path d="M51.9109 35.6426C51.9293 35.7661 51.9209 35.8922 51.8863 36.0122C51.8517 36.1323 51.7917 36.2435 51.7104 36.3383C51.6291 36.4331 51.5283 36.5093 51.415 36.5618C51.3016 36.6143 51.1783 36.6418 51.0534 36.6424H35.8237C35.6781 36.6422 35.5349 36.6055 35.4072 36.5357C35.2795 36.4658 35.1714 36.3651 35.0927 36.2426C35.014 36.1202 34.9673 35.9799 34.9568 35.8347C34.9463 35.6896 34.9724 35.5441 35.0327 35.4116L37.2237 30.6259L33.4099 38.5173C33.3355 38.6644 33.3053 38.8298 33.3226 38.9937C33.34 39.1576 33.4043 39.313 33.5079 39.4413L37.2237 44.1068L37.6904 44.6994L45.157 54.0759C45.2608 54.2032 45.3261 54.3574 45.3452 54.5205C45.3643 54.6836 45.3365 54.8488 45.2649 54.9966C45.1933 55.1444 45.081 55.2687 44.9412 55.3549C44.8014 55.441 44.6399 55.4854 44.4757 55.4829H27.916C27.7849 55.4828 27.6556 55.453 27.5376 55.3958C27.4196 55.3386 27.3161 55.2555 27.2347 55.1528L20.1904 46.3048L19.684 45.6783L18.7507 44.5023L19.684 43.7101L19.8275 43.5934L23.52 40.4714C23.7304 40.2922 23.875 40.0478 23.9308 39.7771C23.9866 39.5064 23.9504 39.2248 23.828 38.9769C23.7264 38.7667 23.567 38.5899 23.3684 38.4671C23.1698 38.3444 22.9403 38.2808 22.7069 38.2839C22.4175 38.2814 22.1368 38.3828 21.9159 38.5698L19.8275 40.3291L19.684 40.4458L17.871 41.9741C17.7826 42.0499 17.6799 42.1071 17.5689 42.1423C17.4579 42.1775 17.341 42.1901 17.225 42.1792C17.1091 42.1683 16.9966 42.1342 16.8941 42.0789C16.7916 42.0237 16.7013 41.9483 16.6285 41.8574L10.2422 33.8331C9.9979 33.5261 9.84293 33.1576 9.79432 32.7683C9.7457 32.379 9.80531 31.9838 9.96661 31.6261C10.1279 31.2684 10.3847 30.9621 10.7086 30.7408C11.0326 30.5195 11.4113 30.3917 11.8032 30.3716C12.7206 31.9344 13.416 33.6173 13.8694 35.3719H14.5624C15.0071 33.6161 15.6993 31.9325 16.618 30.3716H25.5104C27.43 33.6336 28.8733 37.1532 29.7967 40.8238H31.3029C32.2186 37.1558 33.6508 33.6366 35.5565 30.3716H44.5912C45.5164 31.9319 46.216 33.6154 46.669 35.3719H47.3504C47.799 33.6158 48.4947 31.9322 49.4165 30.3716H50.3732C50.5834 30.371 50.7869 30.4461 50.9463 30.5832C51.1057 30.7204 51.2104 30.9103 51.2412 31.1183L51.9109 35.6426Z" fill="#ABFFC7"/>
<path d="M30.5095 1.55737C28.4382 1.56481 26.4034 2.10293 24.5992 3.12038C22.795 4.13784 21.2817 5.60068 20.2036 7.36931C19.1256 9.13793 18.5187 11.1533 18.441 13.2232C18.3633 15.293 18.8174 17.3482 19.7598 19.1927C21.4726 23.0167 23.3914 26.745 25.508 30.3612H35.5542C37.6536 26.7428 39.558 23.0146 41.2592 19.1927C42.2068 17.3488 42.6649 15.2924 42.5896 13.2207C42.5143 11.1489 41.9081 9.13119 40.829 7.36098C39.75 5.59078 38.2344 4.12743 36.4274 3.11119C34.6204 2.09496 32.5826 1.55992 30.5095 1.55737ZM30.5095 19.6827C29.3138 19.6827 28.1449 19.3281 27.1507 18.6638C26.1565 17.9995 25.3816 17.0553 24.924 15.9506C24.4665 14.8459 24.3467 13.6303 24.58 12.4576C24.8133 11.2848 25.3891 10.2076 26.2346 9.36211C27.0801 8.51661 28.1573 7.94081 29.3301 7.70754C30.5028 7.47427 31.7184 7.59399 32.8231 8.05157C33.9278 8.50915 34.872 9.28404 35.5363 10.2782C36.2006 11.2725 36.5552 12.4413 36.5552 13.637C36.5556 14.4311 36.3996 15.2175 36.0959 15.9512C35.7922 16.6849 35.3469 17.3515 34.7855 17.913C34.224 18.4745 33.5573 18.9198 32.8236 19.2234C32.0899 19.5271 31.3036 19.6832 30.5095 19.6827Z" fill="#7F6BF6"/>
<path d="M35.5554 30.3669C33.6498 33.6325 32.2177 37.1521 31.3017 40.8203H29.7955C28.872 37.1494 27.4286 33.6294 25.5092 30.3669H35.5554Z" fill="#5B3DEB"/>
<path d="M46.9968 17.4077C46.0491 17.4113 45.1181 17.6575 44.2924 18.1228C43.4668 18.5882 42.7741 19.2573 42.2804 20.0663C41.7867 20.8752 41.5083 21.7972 41.4719 22.7442C41.4355 23.6913 41.6422 24.6319 42.0723 25.4764C42.8167 27.1537 43.6573 28.7867 44.59 30.367H49.4153C50.3369 28.7844 51.1696 27.1516 51.9097 25.4764C52.3397 24.6328 52.5468 23.6932 52.511 22.747C52.4753 21.8007 52.198 20.8794 51.7056 20.0707C51.2132 19.2619 50.5219 18.5926 49.6977 18.1265C48.8735 17.6604 47.9437 17.4129 46.9968 17.4077ZM46.9968 25.691C46.4511 25.691 45.9177 25.5292 45.4639 25.226C45.0102 24.9229 44.6565 24.4919 44.4477 23.9878C44.2389 23.4836 44.1842 22.9288 44.2907 22.3936C44.3972 21.8584 44.6599 21.3667 45.0458 20.9809C45.4317 20.595 45.9233 20.3322 46.4586 20.2257C46.9938 20.1193 47.5486 20.1739 48.0527 20.3827C48.5569 20.5916 48.9878 20.9452 49.291 21.399C49.5942 21.8527 49.756 22.3862 49.756 22.9319C49.7551 23.6634 49.4641 24.3646 48.9468 24.8819C48.4296 25.3991 47.7283 25.6901 46.9968 25.691Z" fill="#7F6BF6"/>
<path d="M49.4154 30.3669C48.4935 31.928 47.7979 33.6119 47.3492 35.3684H46.6679C46.2143 33.6117 45.5148 31.9279 44.59 30.3669H49.4154Z" fill="#5B3DEB"/>
<path d="M14.1984 17.4077C13.2497 17.4084 12.3172 17.6529 11.4904 18.1179C10.6636 18.5829 9.9702 19.2527 9.47687 20.0629C8.98353 20.8731 8.70682 21.7966 8.67331 22.7446C8.6398 23.6926 8.85062 24.6333 9.28552 25.4764C10.029 27.1539 10.8692 28.7869 11.802 30.367H16.6169C17.5384 28.7844 18.3711 27.1516 19.1112 25.4764C19.5183 24.696 19.7297 23.8284 19.7272 22.9482C19.7284 21.4804 19.1467 20.0722 18.1099 19.0332C17.0731 17.9943 15.6661 17.4096 14.1984 17.4077ZM14.1984 25.691C13.6526 25.691 13.1192 25.5292 12.6654 25.226C12.2117 24.9229 11.858 24.4919 11.6492 23.9878C11.4404 23.4836 11.3857 22.9288 11.4922 22.3936C11.5987 21.8584 11.8614 21.3667 12.2473 20.9809C12.6332 20.595 13.1248 20.3322 13.6601 20.2257C14.1953 20.1193 14.7501 20.1739 15.2542 20.3827C15.7584 20.5916 16.1893 20.9452 16.4925 21.399C16.7957 21.8527 16.9575 22.3862 16.9575 22.9319C16.9583 23.2944 16.8874 23.6536 16.7491 23.9887C16.6107 24.3238 16.4075 24.6283 16.1511 24.8846C15.8947 25.141 15.5903 25.3442 15.2551 25.4826C14.92 25.621 14.5609 25.6918 14.1984 25.691Z" fill="#7F6BF6"/>
<path d="M16.6157 30.3669C15.6969 31.9283 15.0047 33.6123 14.56 35.3684H13.8682C13.4139 33.6136 12.7182 31.9304 11.8008 30.3669H16.6157Z" fill="#5B3DEB"/>
</g>
<defs>
<clipPath id="clip0_1_706">
<rect width="56" height="56" fill="white" transform="translate(0 0.390625)"/>
</clipPath>
</defs>
</svg>
